<mxfile host="app.diagrams.net" modified="2021-05-26T06:54:54.769Z" agent="5.0 (Windows NT 10.0; Win64; x64) AppleWebKit/537.36 (KHTML, like Gecko) Chrome/90.0.4430.212 Safari/537.36 Edg/90.0.818.66" etag="LWOUB1g8mUrlsmPy0gqe" version="14.7.1" type="github">
  <diagram id="0VA6eN4kqEZlemaBUKzM" name="Page-1">
    <mxGraphModel dx="3744" dy="3243" grid="1" gridSize="10" guides="1" tooltips="1" connect="1" arrows="1" fold="1" page="1" pageScale="1" pageWidth="1169" pageHeight="827" math="0" shadow="0">
      <root>
        <mxCell id="0" />
        <mxCell id="1" parent="0" />
        <mxCell id="NBqt7sdWPjNchdqozeQn-1" style="edgeStyle=orthogonalEdgeStyle;orthogonalLoop=1;jettySize=auto;html=1;sketch=1;curved=1;" parent="1" source="NBqt7sdWPjNchdqozeQn-4" target="NBqt7sdWPjNchdqozeQn-6" edge="1">
          <mxGeometry relative="1" as="geometry" />
        </mxCell>
        <mxCell id="NBqt7sdWPjNchdqozeQn-2" value="" style="edgeStyle=orthogonalEdgeStyle;orthogonalLoop=1;jettySize=auto;html=1;sketch=1;curved=1;" parent="1" source="NBqt7sdWPjNchdqozeQn-4" target="NBqt7sdWPjNchdqozeQn-6" edge="1">
          <mxGeometry relative="1" as="geometry" />
        </mxCell>
        <mxCell id="NBqt7sdWPjNchdqozeQn-3" value="" style="edgeStyle=orthogonalEdgeStyle;orthogonalLoop=1;jettySize=auto;html=1;sketch=1;curved=1;" parent="1" source="NBqt7sdWPjNchdqozeQn-4" target="NBqt7sdWPjNchdqozeQn-6" edge="1">
          <mxGeometry relative="1" as="geometry" />
        </mxCell>
        <mxCell id="NBqt7sdWPjNchdqozeQn-4" value="" style="strokeWidth=2;html=1;shape=mxgraph.flowchart.start_2;whiteSpace=wrap;rounded=1;sketch=1;" parent="1" vertex="1">
          <mxGeometry x="-335.03999999999996" y="-1950" width="40" height="40" as="geometry" />
        </mxCell>
        <mxCell id="NBqt7sdWPjNchdqozeQn-5" style="edgeStyle=orthogonalEdgeStyle;orthogonalLoop=1;jettySize=auto;html=1;sketch=1;curved=1;" parent="1" source="NBqt7sdWPjNchdqozeQn-6" target="NBqt7sdWPjNchdqozeQn-10" edge="1">
          <mxGeometry relative="1" as="geometry" />
        </mxCell>
        <mxCell id="NBqt7sdWPjNchdqozeQn-6" value="&lt;br&gt;&lt;br&gt;cliente" style="shape=actor;whiteSpace=wrap;html=1;rounded=1;sketch=1;" parent="1" vertex="1">
          <mxGeometry x="-345.04999999999995" y="-1870" width="60" height="80" as="geometry" />
        </mxCell>
        <mxCell id="NBqt7sdWPjNchdqozeQn-7" style="edgeStyle=orthogonalEdgeStyle;orthogonalLoop=1;jettySize=auto;html=1;fontSize=16;exitX=1;exitY=0.5;exitDx=0;exitDy=0;exitPerimeter=0;sketch=1;curved=1;" parent="1" source="NBqt7sdWPjNchdqozeQn-10" target="NBqt7sdWPjNchdqozeQn-96" edge="1">
          <mxGeometry relative="1" as="geometry">
            <mxPoint x="-138.04999999999984" y="-1698.0588235294117" as="targetPoint" />
            <mxPoint x="-228.04999999999978" y="-1700" as="sourcePoint" />
          </mxGeometry>
        </mxCell>
        <mxCell id="NBqt7sdWPjNchdqozeQn-8" value="NO" style="edgeLabel;html=1;align=center;verticalAlign=middle;resizable=0;points=[];fontSize=16;rounded=1;sketch=1;" parent="NBqt7sdWPjNchdqozeQn-7" vertex="1" connectable="0">
          <mxGeometry x="0.3108" y="1" relative="1" as="geometry">
            <mxPoint x="-28.189999999999998" y="-19" as="offset" />
          </mxGeometry>
        </mxCell>
        <mxCell id="NBqt7sdWPjNchdqozeQn-9" style="edgeStyle=orthogonalEdgeStyle;rounded=0;orthogonalLoop=1;jettySize=auto;html=1;shadow=0;sketch=1;curved=1;" parent="1" source="NBqt7sdWPjNchdqozeQn-10" target="NBqt7sdWPjNchdqozeQn-231" edge="1">
          <mxGeometry relative="1" as="geometry" />
        </mxCell>
        <mxCell id="NBqt7sdWPjNchdqozeQn-10" value="Registered customer number&amp;nbsp;" style="strokeWidth=2;html=1;shape=mxgraph.flowchart.decision;whiteSpace=wrap;rounded=1;sketch=1;" parent="1" vertex="1">
          <mxGeometry x="-375.04999999999995" y="-1750" width="120" height="130" as="geometry" />
        </mxCell>
        <mxCell id="NBqt7sdWPjNchdqozeQn-11" style="edgeStyle=orthogonalEdgeStyle;orthogonalLoop=1;jettySize=auto;html=1;entryX=0.5;entryY=0;entryDx=0;entryDy=0;sketch=1;curved=1;" parent="1" source="NBqt7sdWPjNchdqozeQn-15" target="NBqt7sdWPjNchdqozeQn-58" edge="1" treatAsSingle="0">
          <mxGeometry relative="1" as="geometry">
            <mxPoint x="-271.66" y="1450" as="targetPoint" />
          </mxGeometry>
        </mxCell>
        <mxCell id="NBqt7sdWPjNchdqozeQn-12" value="SI" style="edgeLabel;html=1;align=center;verticalAlign=middle;resizable=0;points=[];fontSize=16;rounded=1;sketch=1;" parent="NBqt7sdWPjNchdqozeQn-11" vertex="1" connectable="0">
          <mxGeometry x="-0.2667" relative="1" as="geometry">
            <mxPoint x="10" y="2" as="offset" />
          </mxGeometry>
        </mxCell>
        <mxCell id="NBqt7sdWPjNchdqozeQn-13" style="edgeStyle=orthogonalEdgeStyle;orthogonalLoop=1;jettySize=auto;html=1;entryX=0;entryY=0.5;entryDx=0;entryDy=0;sketch=1;curved=1;" parent="1" source="NBqt7sdWPjNchdqozeQn-15" target="NBqt7sdWPjNchdqozeQn-16" edge="1" treatAsSingle="0">
          <mxGeometry relative="1" as="geometry" />
        </mxCell>
        <mxCell id="NBqt7sdWPjNchdqozeQn-14" value="NO" style="edgeLabel;html=1;align=center;verticalAlign=middle;resizable=0;points=[];fontSize=16;rounded=1;sketch=1;" parent="NBqt7sdWPjNchdqozeQn-13" vertex="1" connectable="0">
          <mxGeometry x="-0.2" y="1" relative="1" as="geometry">
            <mxPoint x="-2.2299999999999986" y="-22.08" as="offset" />
          </mxGeometry>
        </mxCell>
        <mxCell id="NBqt7sdWPjNchdqozeQn-15" value="It is in coverage area&amp;nbsp;" style="strokeWidth=2;html=1;shape=mxgraph.flowchart.decision;whiteSpace=wrap;rounded=1;sketch=1;" parent="1" vertex="1">
          <mxGeometry x="-247.95999999999998" y="965" width="110" height="110" as="geometry" />
        </mxCell>
        <mxCell id="NBqt7sdWPjNchdqozeQn-16" value="&lt;div&gt;I&#39;m sorry to inform you that you are not in the coverage area (emoticon).&lt;/div&gt;&lt;div&gt;I hope to serve you soon! Thanks&amp;nbsp;&lt;/div&gt;" style="whiteSpace=wrap;html=1;absoluteArcSize=1;arcSize=14;strokeWidth=2;rounded=1;sketch=1;" parent="1" vertex="1">
          <mxGeometry x="-471.16" y="1060" width="119.26" height="125" as="geometry" />
        </mxCell>
        <mxCell id="NBqt7sdWPjNchdqozeQn-17" style="edgeStyle=orthogonalEdgeStyle;orthogonalLoop=1;jettySize=auto;html=1;fontSize=16;sketch=1;curved=1;" parent="1" source="NBqt7sdWPjNchdqozeQn-18" target="NBqt7sdWPjNchdqozeQn-23" edge="1">
          <mxGeometry relative="1" as="geometry" />
        </mxCell>
        <mxCell id="NBqt7sdWPjNchdqozeQn-18" value="&lt;div&gt;&lt;div&gt;&lt;span style=&quot;font-size: 12px&quot;&gt;Let&#39;s prepare the order, choose what you like the most. Each combo includes potatoes and medium sodas. Send the number of your choice:&lt;/span&gt;&lt;/div&gt;&lt;div&gt;&lt;span style=&quot;font-size: 12px&quot;&gt;&lt;br&gt;&lt;/span&gt;&lt;/div&gt;&lt;div&gt;&lt;span style=&quot;font-size: 12px&quot;&gt;0. Cancel order.&lt;/span&gt;&lt;/div&gt;&lt;div&gt;&lt;span style=&quot;font-size: 12px&quot;&gt;Burgers Combo:&lt;/span&gt;&lt;/div&gt;&lt;div&gt;&lt;span style=&quot;font-size: 12px&quot;&gt;1. Whopper with cheese $$. (Picture)&lt;/span&gt;&lt;/div&gt;&lt;div&gt;&lt;span style=&quot;font-size: 12px&quot;&gt;2. Swiss Whopper $$. (Image)&lt;/span&gt;&lt;/div&gt;&lt;div&gt;&lt;span style=&quot;font-size: 12px&quot;&gt;3. Whopper Double Cheese $$. (Image)&lt;/span&gt;&lt;/div&gt;&lt;div&gt;&lt;span style=&quot;font-size: 12px&quot;&gt;4. Whopper Xtreme $$. (Image)&lt;/span&gt;&lt;/div&gt;&lt;div&gt;&lt;span style=&quot;font-size: 12px&quot;&gt;5. Traditional PicaÃ±a $$. (Image)&lt;/span&gt;&lt;/div&gt;&lt;div&gt;&lt;span style=&quot;font-size: 12px&quot;&gt;6. Whopper Jr. $$. (Image)&lt;/span&gt;&lt;/div&gt;&lt;div&gt;&lt;span style=&quot;font-size: 12px&quot;&gt;7. Big King $$. (Image)&lt;/span&gt;&lt;/div&gt;&lt;div&gt;&lt;span style=&quot;font-size: 12px&quot;&gt;8. Double medallion with cheese and bacon $$. (Image)&lt;/span&gt;&lt;/div&gt;&lt;div&gt;&lt;span style=&quot;font-size: 12px&quot;&gt;9. Mega Stacker Muzzarella $$ Combo. (picture)&lt;/span&gt;&lt;/div&gt;&lt;div&gt;&lt;span style=&quot;font-size: 12px&quot;&gt;Children (toy + juice + small potatoes):&lt;/span&gt;&lt;/div&gt;&lt;div&gt;&lt;span style=&quot;font-size: 12px&quot;&gt;10. Magic box $$. (Image)&lt;/span&gt;&lt;/div&gt;&lt;div&gt;&lt;span style=&quot;font-size: 12px&quot;&gt;Promos:&lt;/span&gt;&lt;/div&gt;&lt;div&gt;&lt;span style=&quot;font-size: 12px&quot;&gt;11. Combo Cheese Long $$. (Image)&lt;/span&gt;&lt;/div&gt;&lt;div&gt;&lt;span style=&quot;font-size: 12px&quot;&gt;12. Double Stacker Combo $$. (Image)&lt;/span&gt;&lt;/div&gt;&lt;/div&gt;" style="whiteSpace=wrap;html=1;fontSize=16;spacingLeft=7;spacingRight=4;rounded=1;sketch=1;align=left;" parent="1" vertex="1">
          <mxGeometry x="-480" y="1620" width="331.2" height="420" as="geometry" />
        </mxCell>
        <mxCell id="NBqt7sdWPjNchdqozeQn-19" style="edgeStyle=orthogonalEdgeStyle;orthogonalLoop=1;jettySize=auto;html=1;entryX=0;entryY=0.5;entryDx=0;entryDy=0;fontSize=16;sketch=1;curved=1;" parent="1" source="NBqt7sdWPjNchdqozeQn-23" target="NBqt7sdWPjNchdqozeQn-24" edge="1">
          <mxGeometry relative="1" as="geometry">
            <mxPoint x="-140.69" y="1950" as="targetPoint" />
          </mxGeometry>
        </mxCell>
        <mxCell id="NBqt7sdWPjNchdqozeQn-20" value="0" style="edgeLabel;html=1;align=center;verticalAlign=middle;resizable=0;points=[];fontSize=16;rounded=1;sketch=1;" parent="NBqt7sdWPjNchdqozeQn-19" vertex="1" connectable="0">
          <mxGeometry x="-0.2227" y="2" relative="1" as="geometry">
            <mxPoint x="38.290000000000006" y="-18" as="offset" />
          </mxGeometry>
        </mxCell>
        <mxCell id="NBqt7sdWPjNchdqozeQn-21" style="edgeStyle=orthogonalEdgeStyle;orthogonalLoop=1;jettySize=auto;html=1;fontSize=16;sketch=1;curved=1;" parent="1" source="NBqt7sdWPjNchdqozeQn-23" target="NBqt7sdWPjNchdqozeQn-26" edge="1">
          <mxGeometry relative="1" as="geometry" />
        </mxCell>
        <mxCell id="NBqt7sdWPjNchdqozeQn-22" value="1...12" style="edgeLabel;html=1;align=center;verticalAlign=middle;resizable=0;points=[];fontSize=16;rounded=1;sketch=1;" parent="NBqt7sdWPjNchdqozeQn-21" vertex="1" connectable="0">
          <mxGeometry x="0.2182" y="2" relative="1" as="geometry">
            <mxPoint x="-23.570000000000007" as="offset" />
          </mxGeometry>
        </mxCell>
        <mxCell id="NBqt7sdWPjNchdqozeQn-23" value="Catalog option&amp;nbsp;" style="strokeWidth=2;html=1;shape=mxgraph.flowchart.decision;whiteSpace=wrap;labelBackgroundColor=none;fillColor=none;align=center;spacingLeft=11;spacingRight=11;rounded=1;sketch=1;" parent="1" vertex="1">
          <mxGeometry x="-60" y="2024" width="114.99" height="100" as="geometry" />
        </mxCell>
        <mxCell id="NBqt7sdWPjNchdqozeQn-24" value="&lt;span style=&quot;font-size: 12px&quot;&gt;The conversation is over. Write us soon! (Emoticon)&amp;nbsp;&lt;/span&gt;" style="whiteSpace=wrap;html=1;absoluteArcSize=1;arcSize=14;strokeWidth=2;labelBackgroundColor=none;fillColor=none;fontSize=16;align=left;spacingLeft=3;rounded=1;sketch=1;" parent="1" vertex="1">
          <mxGeometry x="95.08000000000001" y="2010" width="110" height="114" as="geometry" />
        </mxCell>
        <mxCell id="NBqt7sdWPjNchdqozeQn-25" style="edgeStyle=orthogonalEdgeStyle;orthogonalLoop=1;jettySize=auto;html=1;fontSize=12;sketch=1;curved=1;" parent="1" source="NBqt7sdWPjNchdqozeQn-26" target="NBqt7sdWPjNchdqozeQn-33" edge="1">
          <mxGeometry relative="1" as="geometry" />
        </mxCell>
        <mxCell id="NBqt7sdWPjNchdqozeQn-26" value="Send the amount you want:&amp;nbsp;" style="whiteSpace=wrap;html=1;fontSize=12;align=left;spacingLeft=2;rounded=1;sketch=1;" parent="1" vertex="1">
          <mxGeometry x="-406.89" y="2150" width="225" height="40" as="geometry" />
        </mxCell>
        <mxCell id="NBqt7sdWPjNchdqozeQn-27" style="edgeStyle=orthogonalEdgeStyle;orthogonalLoop=1;jettySize=auto;html=1;entryX=0.5;entryY=0;entryDx=0;entryDy=0;fontSize=16;sketch=1;curved=1;" parent="1" source="NBqt7sdWPjNchdqozeQn-28" target="NBqt7sdWPjNchdqozeQn-158" edge="1">
          <mxGeometry relative="1" as="geometry" />
        </mxCell>
        <mxCell id="NBqt7sdWPjNchdqozeQn-28" value="Desea agrandar/cambiar las papas. EnvÃ­e el nÃºmero de su opciÃ³n:&lt;br&gt;&lt;ol&gt;&lt;li&gt;Agrandar papas (+$$).&lt;/li&gt;&lt;li&gt;Cambiar papas por aro de cebolla mediano(+0$$).&lt;/li&gt;&lt;li&gt;Cambiar papas por aro de cebolla grande(+$$).&lt;/li&gt;&lt;li&gt;No modificar ni agrandar papas (+0 $$).&lt;/li&gt;&lt;/ol&gt;" style="whiteSpace=wrap;html=1;fontSize=12;align=left;spacingLeft=2;rounded=1;sketch=1;" parent="1" vertex="1">
          <mxGeometry x="-1340.33" y="2370" width="280" height="140" as="geometry" />
        </mxCell>
        <mxCell id="NBqt7sdWPjNchdqozeQn-29" style="edgeStyle=orthogonalEdgeStyle;orthogonalLoop=1;jettySize=auto;html=1;fontSize=12;entryX=0.5;entryY=0;entryDx=0;entryDy=0;entryPerimeter=0;sketch=1;curved=1;" parent="1" source="NBqt7sdWPjNchdqozeQn-33" target="NBqt7sdWPjNchdqozeQn-64" edge="1">
          <mxGeometry relative="1" as="geometry">
            <mxPoint x="-445.69" y="2250" as="targetPoint" />
          </mxGeometry>
        </mxCell>
        <mxCell id="NBqt7sdWPjNchdqozeQn-30" value="SI" style="edgeLabel;html=1;align=center;verticalAlign=middle;resizable=0;points=[];fontSize=16;rounded=1;sketch=1;" parent="NBqt7sdWPjNchdqozeQn-29" vertex="1" connectable="0">
          <mxGeometry x="-0.1885" y="21" relative="1" as="geometry">
            <mxPoint x="15.82" y="-42.89" as="offset" />
          </mxGeometry>
        </mxCell>
        <mxCell id="NBqt7sdWPjNchdqozeQn-31" style="edgeStyle=orthogonalEdgeStyle;orthogonalLoop=1;jettySize=auto;html=1;fontSize=12;entryX=0.5;entryY=0;entryDx=0;entryDy=0;entryPerimeter=0;sketch=1;curved=1;" parent="1" source="NBqt7sdWPjNchdqozeQn-33" target="NBqt7sdWPjNchdqozeQn-188" edge="1">
          <mxGeometry relative="1" as="geometry">
            <mxPoint x="-28.93" y="2470" as="targetPoint" />
          </mxGeometry>
        </mxCell>
        <mxCell id="NBqt7sdWPjNchdqozeQn-32" value="NO" style="edgeLabel;html=1;align=center;verticalAlign=middle;resizable=0;points=[];fontSize=16;rounded=1;sketch=1;" parent="NBqt7sdWPjNchdqozeQn-31" vertex="1" connectable="0">
          <mxGeometry x="-0.7347" y="3" relative="1" as="geometry">
            <mxPoint x="16.4" y="-11" as="offset" />
          </mxGeometry>
        </mxCell>
        <mxCell id="NBqt7sdWPjNchdqozeQn-33" value="Es combo el producto" style="strokeWidth=2;html=1;shape=mxgraph.flowchart.decision;whiteSpace=wrap;labelBackgroundColor=none;fillColor=none;align=center;spacingLeft=11;spacingRight=11;rounded=1;sketch=1;" parent="1" vertex="1">
          <mxGeometry x="-351.9" y="2240" width="114.99" height="100" as="geometry" />
        </mxCell>
        <mxCell id="NBqt7sdWPjNchdqozeQn-34" style="edgeStyle=orthogonalEdgeStyle;orthogonalLoop=1;jettySize=auto;html=1;entryX=0;entryY=0.5;entryDx=0;entryDy=0;fontSize=16;sketch=1;curved=1;" parent="1" source="NBqt7sdWPjNchdqozeQn-35" target="NBqt7sdWPjNchdqozeQn-37" edge="1">
          <mxGeometry relative="1" as="geometry" />
        </mxCell>
        <mxCell id="NBqt7sdWPjNchdqozeQn-35" value="&lt;span&gt;Seleccione su bebida:&lt;/span&gt;&lt;br&gt;&lt;ol&gt;&lt;li&gt;Pepsi cola.&lt;/li&gt;&lt;li&gt;Mirinda naranja.&lt;/li&gt;&lt;li&gt;Mirinda guaranÃ¡.&lt;/li&gt;&lt;li&gt;7 UP.&lt;/li&gt;&lt;li&gt;Pepsi Black.&lt;/li&gt;&lt;li&gt;Agua.&lt;/li&gt;&lt;li&gt;Jugo Naranja.&lt;/li&gt;&lt;li&gt;Jugo Manzana.&lt;/li&gt;&lt;li&gt;Jugo Durazno.&lt;/li&gt;&lt;/ol&gt;" style="whiteSpace=wrap;html=1;fontSize=12;align=left;spacingLeft=3;rounded=1;sketch=1;" parent="1" vertex="1">
          <mxGeometry x="-800" y="3318" width="165" height="190" as="geometry" />
        </mxCell>
        <mxCell id="NBqt7sdWPjNchdqozeQn-36" style="edgeStyle=orthogonalEdgeStyle;orthogonalLoop=1;jettySize=auto;html=1;fontSize=16;sketch=1;curved=1;" parent="1" source="NBqt7sdWPjNchdqozeQn-37" target="NBqt7sdWPjNchdqozeQn-42" edge="1">
          <mxGeometry relative="1" as="geometry" />
        </mxCell>
        <mxCell id="NBqt7sdWPjNchdqozeQn-37" value="&lt;font style=&quot;font-size: 12px;&quot;&gt;Desea agregar otro producto al pedido. EnvÃ­e el nÃºmero de su opciÃ³n:&lt;br style=&quot;font-size: 12px;&quot;&gt;&lt;ol style=&quot;font-size: 12px;&quot;&gt;&lt;li style=&quot;font-size: 12px;&quot;&gt;&lt;font style=&quot;font-size: 12px;&quot;&gt;Si.&lt;/font&gt;&lt;/li&gt;&lt;li style=&quot;font-size: 12px;&quot;&gt;&lt;font style=&quot;font-size: 12px;&quot;&gt;No&lt;/font&gt;&lt;/li&gt;&lt;/ol&gt;&lt;/font&gt;" style="whiteSpace=wrap;html=1;fontSize=12;align=left;spacingLeft=3;rounded=1;sketch=1;" parent="1" vertex="1">
          <mxGeometry x="-314.68" y="3415.14" width="120" height="110" as="geometry" />
        </mxCell>
        <mxCell id="NBqt7sdWPjNchdqozeQn-38" style="edgeStyle=orthogonalEdgeStyle;orthogonalLoop=1;jettySize=auto;html=1;fontSize=12;exitX=1;exitY=0.5;exitDx=0;exitDy=0;exitPerimeter=0;sketch=1;curved=1;entryX=1;entryY=0.5;entryDx=0;entryDy=0;" parent="1" source="NBqt7sdWPjNchdqozeQn-42" target="NBqt7sdWPjNchdqozeQn-18" edge="1">
          <mxGeometry relative="1" as="geometry">
            <Array as="points">
              <mxPoint x="700" y="3620" />
              <mxPoint x="700" y="3060" />
              <mxPoint x="690" y="3060" />
              <mxPoint x="690" y="1640" />
              <mxPoint x="440" y="1640" />
              <mxPoint x="440" y="1680" />
              <mxPoint x="310" y="1680" />
              <mxPoint x="310" y="1730" />
              <mxPoint x="-149" y="1730" />
            </Array>
            <mxPoint x="100" y="1730" as="targetPoint" />
          </mxGeometry>
        </mxCell>
        <mxCell id="NBqt7sdWPjNchdqozeQn-39" value="1" style="edgeLabel;html=1;align=center;verticalAlign=middle;resizable=0;points=[];fontSize=16;rounded=1;sketch=1;" parent="NBqt7sdWPjNchdqozeQn-38" vertex="1" connectable="0">
          <mxGeometry x="-0.9308" relative="1" as="geometry">
            <mxPoint x="40.019999999999996" y="-27.999999999999996" as="offset" />
          </mxGeometry>
        </mxCell>
        <mxCell id="NBqt7sdWPjNchdqozeQn-40" style="edgeStyle=orthogonalEdgeStyle;orthogonalLoop=1;jettySize=auto;html=1;fontSize=16;entryX=0.483;entryY=0.012;entryDx=0;entryDy=0;entryPerimeter=0;sketch=1;curved=1;" parent="1" source="NBqt7sdWPjNchdqozeQn-42" target="NBqt7sdWPjNchdqozeQn-100" edge="1">
          <mxGeometry relative="1" as="geometry">
            <mxPoint x="-254.73000000000002" y="3810" as="targetPoint" />
          </mxGeometry>
        </mxCell>
        <mxCell id="NBqt7sdWPjNchdqozeQn-41" value="2" style="edgeLabel;html=1;align=center;verticalAlign=middle;resizable=0;points=[];fontSize=16;rounded=1;sketch=1;" parent="NBqt7sdWPjNchdqozeQn-40" vertex="1" connectable="0">
          <mxGeometry x="0.6982" y="3" relative="1" as="geometry">
            <mxPoint x="6.72" as="offset" />
          </mxGeometry>
        </mxCell>
        <mxCell id="NBqt7sdWPjNchdqozeQn-42" value="Agregar otro producto" style="strokeWidth=2;html=1;shape=mxgraph.flowchart.decision;whiteSpace=wrap;labelBackgroundColor=none;fillColor=none;fontSize=12;align=center;rounded=1;sketch=1;" parent="1" vertex="1">
          <mxGeometry x="-324.73" y="3565.14" width="140" height="110" as="geometry" />
        </mxCell>
        <mxCell id="NBqt7sdWPjNchdqozeQn-43" style="edgeStyle=orthogonalEdgeStyle;orthogonalLoop=1;jettySize=auto;html=1;fontSize=12;entryX=0.5;entryY=0;entryDx=0;entryDy=0;entryPerimeter=0;sketch=1;curved=1;" parent="1" source="NBqt7sdWPjNchdqozeQn-44" target="NBqt7sdWPjNchdqozeQn-52" edge="1">
          <mxGeometry relative="1" as="geometry">
            <mxPoint x="-230.01" y="5210" as="targetPoint" />
          </mxGeometry>
        </mxCell>
        <mxCell id="NBqt7sdWPjNchdqozeQn-44" value="&lt;span style=&quot;font-size: 12px&quot;&gt;Se generarÃ¡ una factura sin nombre&lt;/span&gt;&lt;span style=&quot;font-size: 12px&quot;&gt;&amp;nbsp;por un valor de $$$$, pago con efectivo/tarjeta.&lt;br&gt;Confirmar la orden. EnvÃ­e el nÃºmero de su opciÃ³n:&lt;br&gt;&lt;ol&gt;&lt;li&gt;&lt;span style=&quot;font-size: 12px&quot;&gt;Confirmar Pedido (emoticon).&lt;/span&gt;&lt;/li&gt;&lt;li&gt;&lt;span style=&quot;font-size: 12px&quot;&gt;Cancelar Pedido (emotion).&lt;/span&gt;&lt;/li&gt;&lt;/ol&gt;&lt;/span&gt;" style="whiteSpace=wrap;html=1;fontSize=16;align=left;spacingLeft=2;rounded=1;sketch=1;" parent="1" vertex="1">
          <mxGeometry x="-209.76000000000005" y="4638.999999999999" width="183.12" height="190" as="geometry" />
        </mxCell>
        <mxCell id="NBqt7sdWPjNchdqozeQn-45" style="edgeStyle=orthogonalEdgeStyle;orthogonalLoop=1;jettySize=auto;html=1;fontSize=12;sketch=1;curved=1;" parent="1" source="NBqt7sdWPjNchdqozeQn-46" target="NBqt7sdWPjNchdqozeQn-52" edge="1">
          <mxGeometry relative="1" as="geometry" />
        </mxCell>
        <mxCell id="NBqt7sdWPjNchdqozeQn-46" value="&lt;p class=&quot;MsoNormal&quot; style=&quot;font-size: 12px&quot;&gt;Se generarÃ¡ una factura a nombre de Juan PÃ©rez con ci/ruc&lt;br style=&quot;font-size: 12px&quot;&gt;123456-6 por un valor de $$$$, pago con efectivo/tarjeta.&lt;/p&gt;&lt;p class=&quot;MsoNormal&quot; style=&quot;font-size: 12px&quot;&gt;Confirmar el pedido. EnvÃ­e el nÃºmero de su opciÃ³n:&lt;br&gt;&lt;/p&gt;&lt;ol&gt;&lt;li&gt;Confirmar Pedido (emoticon).&lt;/li&gt;&lt;li&gt;Cancelar Pedido (emoticon).&lt;/li&gt;&lt;/ol&gt;" style="whiteSpace=wrap;html=1;fontSize=12;align=left;spacingLeft=2;rounded=1;sketch=1;" parent="1" vertex="1">
          <mxGeometry x="-479.35" y="4638.999999999999" width="206.5" height="190" as="geometry" />
        </mxCell>
        <mxCell id="NBqt7sdWPjNchdqozeQn-47" value="Â¡Excelente! (emoticon) se ha generado la orden nro. 123456." style="whiteSpace=wrap;html=1;absoluteArcSize=1;arcSize=14;strokeWidth=2;labelBackgroundColor=none;fillColor=none;fontSize=12;align=center;rounded=1;sketch=1;" parent="1" vertex="1">
          <mxGeometry x="-600" y="5290" width="160" height="120" as="geometry" />
        </mxCell>
        <mxCell id="NBqt7sdWPjNchdqozeQn-48" style="edgeStyle=orthogonalEdgeStyle;orthogonalLoop=1;jettySize=auto;html=1;entryX=0.438;entryY=0.023;entryDx=0;entryDy=0;entryPerimeter=0;fontSize=12;sketch=1;curved=1;" parent="1" source="NBqt7sdWPjNchdqozeQn-52" target="NBqt7sdWPjNchdqozeQn-47" edge="1">
          <mxGeometry relative="1" as="geometry" />
        </mxCell>
        <mxCell id="NBqt7sdWPjNchdqozeQn-49" value="1" style="edgeLabel;html=1;align=center;verticalAlign=middle;resizable=0;points=[];fontSize=16;rounded=1;sketch=1;" parent="NBqt7sdWPjNchdqozeQn-48" vertex="1" connectable="0">
          <mxGeometry x="-0.2861" y="2" relative="1" as="geometry">
            <mxPoint x="-35.28" y="128.94" as="offset" />
          </mxGeometry>
        </mxCell>
        <mxCell id="NBqt7sdWPjNchdqozeQn-50" style="edgeStyle=orthogonalEdgeStyle;orthogonalLoop=1;jettySize=auto;html=1;entryX=0;entryY=0.5;entryDx=0;entryDy=0;fontSize=16;sketch=1;curved=1;" parent="1" source="NBqt7sdWPjNchdqozeQn-52" target="NBqt7sdWPjNchdqozeQn-54" edge="1">
          <mxGeometry relative="1" as="geometry" />
        </mxCell>
        <mxCell id="NBqt7sdWPjNchdqozeQn-51" value="2" style="edgeLabel;html=1;align=center;verticalAlign=middle;resizable=0;points=[];fontSize=16;rounded=1;sketch=1;" parent="NBqt7sdWPjNchdqozeQn-50" vertex="1" connectable="0">
          <mxGeometry x="-0.27" y="2" relative="1" as="geometry">
            <mxPoint x="25.63" y="-18" as="offset" />
          </mxGeometry>
        </mxCell>
        <mxCell id="NBqt7sdWPjNchdqozeQn-52" value="Confirmar pedido" style="strokeWidth=2;html=1;shape=mxgraph.flowchart.decision;whiteSpace=wrap;fontSize=12;align=center;rounded=1;sketch=1;spacingLeft=5;spacingRight=5;" parent="1" vertex="1">
          <mxGeometry x="-345.46999999999997" y="5019.999999999999" width="100" height="100" as="geometry" />
        </mxCell>
        <mxCell id="NBqt7sdWPjNchdqozeQn-53" style="edgeStyle=orthogonalEdgeStyle;rounded=0;sketch=1;orthogonalLoop=1;jettySize=auto;html=1;entryX=0.5;entryY=0;entryDx=0;entryDy=0;entryPerimeter=0;fontSize=16;curved=1;" parent="1" source="NBqt7sdWPjNchdqozeQn-54" target="NBqt7sdWPjNchdqozeQn-221" edge="1">
          <mxGeometry relative="1" as="geometry" />
        </mxCell>
        <mxCell id="NBqt7sdWPjNchdqozeQn-54" value="&lt;span style=&quot;font-size: 12px&quot;&gt;Tu pedido ha sido cancelado.&lt;br&gt;Desea comunicarse con un reperesentante?.&lt;br&gt;&lt;ol&gt;&lt;li&gt;&lt;span style=&quot;font-size: 12px&quot;&gt;Comunicarse con un representante.&lt;/span&gt;&lt;/li&gt;&lt;li&gt;&lt;span style=&quot;font-size: 12px&quot;&gt;Finalizar la conversaciÃ³n.&lt;/span&gt;&lt;/li&gt;&lt;/ol&gt;&lt;/span&gt;&lt;span style=&quot;font-size: 12px&quot;&gt;&lt;br&gt;&lt;/span&gt;" style="whiteSpace=wrap;html=1;absoluteArcSize=1;arcSize=14;strokeWidth=2;labelBackgroundColor=none;fillColor=none;fontSize=16;align=left;spacingLeft=3;rounded=1;sketch=1;" parent="1" vertex="1">
          <mxGeometry x="-154.39" y="4910" width="164.39" height="150" as="geometry" />
        </mxCell>
        <mxCell id="NBqt7sdWPjNchdqozeQn-55" style="edgeStyle=orthogonalEdgeStyle;orthogonalLoop=1;jettySize=auto;html=1;sketch=1;curved=1;" parent="1" source="NBqt7sdWPjNchdqozeQn-256" target="NBqt7sdWPjNchdqozeQn-18" edge="1">
          <mxGeometry relative="1" as="geometry">
            <mxPoint x="-500" y="1530" as="sourcePoint" />
          </mxGeometry>
        </mxCell>
        <mxCell id="NBqt7sdWPjNchdqozeQn-56" value="NO" style="edgeLabel;html=1;align=center;verticalAlign=middle;resizable=0;points=[];fontSize=12;" parent="NBqt7sdWPjNchdqozeQn-55" vertex="1" connectable="0">
          <mxGeometry x="-0.4513" y="-13" relative="1" as="geometry">
            <mxPoint x="-75" y="50" as="offset" />
          </mxGeometry>
        </mxCell>
        <mxCell id="NBqt7sdWPjNchdqozeQn-57" style="edgeStyle=orthogonalEdgeStyle;curved=1;rounded=0;sketch=1;orthogonalLoop=1;jettySize=auto;html=1;shadow=0;fontSize=16;" parent="1" source="NBqt7sdWPjNchdqozeQn-58" target="NBqt7sdWPjNchdqozeQn-256" edge="1">
          <mxGeometry relative="1" as="geometry" />
        </mxCell>
        <mxCell id="NBqt7sdWPjNchdqozeQn-58" value="Cool! your order will be prepared in &quot;NEAREST OR SELECTED BK&quot;.&amp;nbsp;" style="whiteSpace=wrap;html=1;absoluteArcSize=1;arcSize=14;strokeWidth=2;align=center;spacingLeft=2;spacingRight=2;rounded=1;sketch=1;" parent="1" vertex="1">
          <mxGeometry x="-289.57000000000005" y="1200" width="140.77" height="60" as="geometry" />
        </mxCell>
        <mxCell id="NBqt7sdWPjNchdqozeQn-59" style="edgeStyle=orthogonalEdgeStyle;orthogonalLoop=1;jettySize=auto;html=1;fontSize=12;sketch=1;curved=1;" parent="1" source="NBqt7sdWPjNchdqozeQn-64" target="NBqt7sdWPjNchdqozeQn-28" edge="1">
          <mxGeometry relative="1" as="geometry" />
        </mxCell>
        <mxCell id="NBqt7sdWPjNchdqozeQn-60" value="NO" style="edgeLabel;html=1;align=center;verticalAlign=middle;resizable=0;points=[];fontSize=16;rounded=1;sketch=1;" parent="NBqt7sdWPjNchdqozeQn-59" vertex="1" connectable="0">
          <mxGeometry x="-0.6753" y="-1" relative="1" as="geometry">
            <mxPoint x="-95" y="31" as="offset" />
          </mxGeometry>
        </mxCell>
        <mxCell id="NBqt7sdWPjNchdqozeQn-61" style="edgeStyle=orthogonalEdgeStyle;orthogonalLoop=1;jettySize=auto;html=1;fontSize=12;sketch=1;curved=1;" parent="1" edge="1">
          <mxGeometry relative="1" as="geometry">
            <mxPoint x="-444.9199999999998" y="2516" as="sourcePoint" />
            <mxPoint x="-444.91999999999996" y="2556" as="targetPoint" />
          </mxGeometry>
        </mxCell>
        <mxCell id="NBqt7sdWPjNchdqozeQn-62" value="SI" style="edgeLabel;html=1;align=center;verticalAlign=middle;resizable=0;points=[];fontSize=16;rounded=1;sketch=1;" parent="NBqt7sdWPjNchdqozeQn-61" vertex="1" connectable="0">
          <mxGeometry x="-0.39" y="6" relative="1" as="geometry">
            <mxPoint x="8.2" y="8" as="offset" />
          </mxGeometry>
        </mxCell>
        <mxCell id="NBqt7sdWPjNchdqozeQn-63" style="edgeStyle=orthogonalEdgeStyle;curved=1;rounded=0;sketch=1;orthogonalLoop=1;jettySize=auto;html=1;entryX=0.577;entryY=0.011;entryDx=0;entryDy=0;entryPerimeter=0;shadow=0;fontSize=16;" parent="1" source="NBqt7sdWPjNchdqozeQn-64" target="NBqt7sdWPjNchdqozeQn-66" edge="1">
          <mxGeometry relative="1" as="geometry" />
        </mxCell>
        <mxCell id="NBqt7sdWPjNchdqozeQn-64" value="Es combo niÃ±o" style="strokeWidth=2;html=1;shape=mxgraph.flowchart.decision;whiteSpace=wrap;fontSize=12;rounded=1;sketch=1;" parent="1" vertex="1">
          <mxGeometry x="-479.94" y="2320" width="100" height="100" as="geometry" />
        </mxCell>
        <mxCell id="NBqt7sdWPjNchdqozeQn-65" style="edgeStyle=orthogonalEdgeStyle;orthogonalLoop=1;jettySize=auto;html=1;entryX=0.5;entryY=0;entryDx=0;entryDy=0;entryPerimeter=0;fontSize=12;sketch=1;curved=1;" parent="1" source="NBqt7sdWPjNchdqozeQn-66" target="NBqt7sdWPjNchdqozeQn-90" edge="1">
          <mxGeometry relative="1" as="geometry" />
        </mxCell>
        <mxCell id="NBqt7sdWPjNchdqozeQn-66" value="&lt;span&gt;Seleccione su bebida:&lt;br&gt;&lt;/span&gt;&lt;ol&gt;&lt;li&gt;Frutika durazno.&lt;/li&gt;&lt;li&gt;Frutika manzana.&lt;/li&gt;&lt;li&gt;Frutika naranja.&lt;/li&gt;&lt;li&gt;Pepsi.&lt;/li&gt;&lt;li&gt;7 up.&lt;/li&gt;&lt;li&gt;Mirinda naranja.&lt;/li&gt;&lt;li&gt;Mirinda guaranÃ¡.&lt;/li&gt;&lt;li&gt;Agua.&lt;/li&gt;&lt;/ol&gt;&lt;div&gt;(se puede agrandar papas y gaseosa con costo adicional)&lt;/div&gt;" style="whiteSpace=wrap;html=1;fontSize=12;align=left;spacingLeft=3;rounded=1;sketch=1;" parent="1" vertex="1">
          <mxGeometry x="-522.25" y="2506" width="152.5" height="220" as="geometry" />
        </mxCell>
        <mxCell id="NBqt7sdWPjNchdqozeQn-67" style="edgeStyle=orthogonalEdgeStyle;orthogonalLoop=1;jettySize=auto;html=1;entryX=0.5;entryY=0;entryDx=0;entryDy=0;fontSize=16;sketch=1;curved=1;" parent="1" source="NBqt7sdWPjNchdqozeQn-68" target="NBqt7sdWPjNchdqozeQn-37" edge="1">
          <mxGeometry relative="1" as="geometry" />
        </mxCell>
        <mxCell id="NBqt7sdWPjNchdqozeQn-68" value="Seleccione el juguete. EnvÃ­e el nÃºmero de su opciÃ³n:&lt;br&gt;&lt;ol&gt;&lt;li style=&quot;text-align: left&quot;&gt;Juguete para nena (emoticon).&lt;/li&gt;&lt;li style=&quot;text-align: left&quot;&gt;Juguete para varÃ³n (emoticon).&lt;/li&gt;&lt;/ol&gt;" style="whiteSpace=wrap;html=1;absoluteArcSize=1;arcSize=14;strokeWidth=2;fontSize=12;rounded=1;sketch=1;" parent="1" vertex="1">
          <mxGeometry x="-492.71" y="3230" width="178.03" height="120" as="geometry" />
        </mxCell>
        <mxCell id="NBqt7sdWPjNchdqozeQn-69" style="edgeStyle=orthogonalEdgeStyle;orthogonalLoop=1;jettySize=auto;html=1;sketch=1;curved=1;" parent="1" source="NBqt7sdWPjNchdqozeQn-70" target="NBqt7sdWPjNchdqozeQn-110" edge="1">
          <mxGeometry relative="1" as="geometry" />
        </mxCell>
        <mxCell id="NBqt7sdWPjNchdqozeQn-70" value="Before starting the order please write the delivery address of the order in a single line:&amp;nbsp;" style="whiteSpace=wrap;html=1;absoluteArcSize=1;arcSize=14;strokeWidth=2;rounded=1;sketch=1;" parent="1" vertex="1">
          <mxGeometry x="-330.01" y="-40" width="179.26" height="60" as="geometry" />
        </mxCell>
        <mxCell id="NBqt7sdWPjNchdqozeQn-71" style="edgeStyle=orthogonalEdgeStyle;orthogonalLoop=1;jettySize=auto;html=1;fontSize=12;sketch=1;curved=1;" parent="1" source="NBqt7sdWPjNchdqozeQn-72" target="NBqt7sdWPjNchdqozeQn-81" edge="1">
          <mxGeometry relative="1" as="geometry" />
        </mxCell>
        <mxCell id="NBqt7sdWPjNchdqozeQn-72" value="Necesito tus datos para la impresiÃ³n de la factura (emoticon). EnvÃ­e el nÃºmero de su opciÃ³n:&lt;br style=&quot;font-size: 12px&quot;&gt;&lt;ol style=&quot;font-size: 12px&quot;&gt;&lt;li style=&quot;text-align: left ; font-size: 12px&quot;&gt;Factura a nombre de Juan PÃ©rez.&lt;/li&gt;&lt;li style=&quot;text-align: left ; font-size: 12px&quot;&gt;Factura sin nombre.&lt;/li&gt;&lt;li style=&quot;text-align: left ; font-size: 12px&quot;&gt;Agregar nombre a la factura y registrarlos en mi perfil (para futuros pedidos).&lt;br&gt;&lt;/li&gt;&lt;li style=&quot;text-align: left ; font-size: 12px&quot;&gt;Agregar nombre a la factura sin registrar en mi perfil (se descarta informaciÃ³n finalizado el pedido).&lt;/li&gt;&lt;/ol&gt;" style="whiteSpace=wrap;html=1;absoluteArcSize=1;arcSize=14;strokeWidth=2;fontSize=12;rounded=1;sketch=1;" parent="1" vertex="1">
          <mxGeometry x="-410" y="4150" width="352" height="130" as="geometry" />
        </mxCell>
        <mxCell id="NBqt7sdWPjNchdqozeQn-73" style="edgeStyle=orthogonalEdgeStyle;orthogonalLoop=1;jettySize=auto;html=1;entryX=1;entryY=0.25;entryDx=0;entryDy=0;fontSize=12;sketch=1;curved=1;" parent="1" source="NBqt7sdWPjNchdqozeQn-81" target="NBqt7sdWPjNchdqozeQn-46" edge="1">
          <mxGeometry relative="1" as="geometry" />
        </mxCell>
        <mxCell id="NBqt7sdWPjNchdqozeQn-74" value="1" style="edgeLabel;html=1;align=center;verticalAlign=middle;resizable=0;points=[];fontSize=16;rounded=1;sketch=1;" parent="NBqt7sdWPjNchdqozeQn-73" vertex="1" connectable="0">
          <mxGeometry x="0.1777" y="-6" relative="1" as="geometry">
            <mxPoint x="-19.05" y="4.88" as="offset" />
          </mxGeometry>
        </mxCell>
        <mxCell id="NBqt7sdWPjNchdqozeQn-75" style="edgeStyle=orthogonalEdgeStyle;orthogonalLoop=1;jettySize=auto;html=1;fontSize=16;exitX=1;exitY=0.5;exitDx=0;exitDy=0;exitPerimeter=0;sketch=1;curved=1;" parent="1" source="NBqt7sdWPjNchdqozeQn-81" target="NBqt7sdWPjNchdqozeQn-44" edge="1">
          <mxGeometry relative="1" as="geometry" />
        </mxCell>
        <mxCell id="NBqt7sdWPjNchdqozeQn-76" value="2" style="edgeLabel;html=1;align=center;verticalAlign=middle;resizable=0;points=[];fontSize=16;rounded=1;sketch=1;" parent="NBqt7sdWPjNchdqozeQn-75" vertex="1" connectable="0">
          <mxGeometry x="0.5855" y="-1" relative="1" as="geometry">
            <mxPoint x="11.71" y="22.84" as="offset" />
          </mxGeometry>
        </mxCell>
        <mxCell id="NBqt7sdWPjNchdqozeQn-77" style="edgeStyle=orthogonalEdgeStyle;curved=1;rounded=0;sketch=1;orthogonalLoop=1;jettySize=auto;html=1;entryX=0.5;entryY=0;entryDx=0;entryDy=0;shadow=0;fontSize=16;" parent="1" source="NBqt7sdWPjNchdqozeQn-81" target="NBqt7sdWPjNchdqozeQn-83" edge="1">
          <mxGeometry relative="1" as="geometry" />
        </mxCell>
        <mxCell id="NBqt7sdWPjNchdqozeQn-78" value="3" style="edgeLabel;html=1;align=center;verticalAlign=middle;resizable=0;points=[];fontSize=16;" parent="NBqt7sdWPjNchdqozeQn-77" vertex="1" connectable="0">
          <mxGeometry x="0.5" y="13" relative="1" as="geometry">
            <mxPoint x="-77" as="offset" />
          </mxGeometry>
        </mxCell>
        <mxCell id="NBqt7sdWPjNchdqozeQn-79" style="edgeStyle=orthogonalEdgeStyle;curved=1;rounded=0;sketch=1;orthogonalLoop=1;jettySize=auto;html=1;entryX=1;entryY=0.75;entryDx=0;entryDy=0;shadow=0;fontSize=16;" parent="1" source="NBqt7sdWPjNchdqozeQn-81" target="NBqt7sdWPjNchdqozeQn-251" edge="1">
          <mxGeometry relative="1" as="geometry" />
        </mxCell>
        <mxCell id="NBqt7sdWPjNchdqozeQn-80" value="4" style="edgeLabel;html=1;align=center;verticalAlign=middle;resizable=0;points=[];fontSize=16;" parent="NBqt7sdWPjNchdqozeQn-79" vertex="1" connectable="0">
          <mxGeometry x="0.3768" y="-17" relative="1" as="geometry">
            <mxPoint x="-76" as="offset" />
          </mxGeometry>
        </mxCell>
        <mxCell id="NBqt7sdWPjNchdqozeQn-81" value="OpciÃ³n factura" style="strokeWidth=2;html=1;shape=mxgraph.flowchart.decision;whiteSpace=wrap;rounded=1;sketch=1;" parent="1" vertex="1">
          <mxGeometry x="-277.69" y="4359.999999999999" width="105" height="100" as="geometry" />
        </mxCell>
        <mxCell id="NBqt7sdWPjNchdqozeQn-82" style="edgeStyle=orthogonalEdgeStyle;orthogonalLoop=1;jettySize=auto;html=1;entryX=0.5;entryY=0;entryDx=0;entryDy=0;fontSize=12;sketch=1;curved=1;" parent="1" source="NBqt7sdWPjNchdqozeQn-83" target="NBqt7sdWPjNchdqozeQn-85" edge="1">
          <mxGeometry relative="1" as="geometry" />
        </mxCell>
        <mxCell id="NBqt7sdWPjNchdqozeQn-83" value="EnvÃ­e el nombre:" style="whiteSpace=wrap;html=1;absoluteArcSize=1;arcSize=14;strokeWidth=2;rounded=1;sketch=1;" parent="1" vertex="1">
          <mxGeometry x="-901.4399999999998" y="4459.999999999999" width="105" height="40" as="geometry" />
        </mxCell>
        <mxCell id="NBqt7sdWPjNchdqozeQn-84" style="edgeStyle=orthogonalEdgeStyle;curved=1;rounded=0;sketch=1;orthogonalLoop=1;jettySize=auto;html=1;entryX=0.5;entryY=0;entryDx=0;entryDy=0;shadow=0;fontSize=16;" parent="1" source="NBqt7sdWPjNchdqozeQn-85" target="NBqt7sdWPjNchdqozeQn-249" edge="1">
          <mxGeometry relative="1" as="geometry" />
        </mxCell>
        <mxCell id="NBqt7sdWPjNchdqozeQn-85" value="EnvÃ­e el ci/ruc:" style="whiteSpace=wrap;html=1;absoluteArcSize=1;arcSize=14;strokeWidth=2;fontSize=12;rounded=1;sketch=1;" parent="1" vertex="1">
          <mxGeometry x="-902.5899999999999" y="4545.86" width="105" height="40" as="geometry" />
        </mxCell>
        <mxCell id="NBqt7sdWPjNchdqozeQn-86" style="edgeStyle=orthogonalEdgeStyle;orthogonalLoop=1;jettySize=auto;html=1;fontSize=12;sketch=1;curved=1;" parent="1" source="NBqt7sdWPjNchdqozeQn-90" target="NBqt7sdWPjNchdqozeQn-92" edge="1">
          <mxGeometry relative="1" as="geometry" />
        </mxCell>
        <mxCell id="NBqt7sdWPjNchdqozeQn-87" value="SI" style="edgeLabel;html=1;align=center;verticalAlign=middle;resizable=0;points=[];fontSize=16;rounded=1;sketch=1;" parent="NBqt7sdWPjNchdqozeQn-86" vertex="1" connectable="0">
          <mxGeometry x="-0.1128" y="20" relative="1" as="geometry">
            <mxPoint x="-18.11" y="30" as="offset" />
          </mxGeometry>
        </mxCell>
        <mxCell id="NBqt7sdWPjNchdqozeQn-88" style="edgeStyle=orthogonalEdgeStyle;orthogonalLoop=1;jettySize=auto;html=1;fontSize=16;sketch=1;curved=1;" parent="1" source="NBqt7sdWPjNchdqozeQn-90" target="NBqt7sdWPjNchdqozeQn-94" edge="1">
          <mxGeometry relative="1" as="geometry">
            <mxPoint x="-470.98999999999995" y="2976" as="targetPoint" />
          </mxGeometry>
        </mxCell>
        <mxCell id="NBqt7sdWPjNchdqozeQn-89" value="NO" style="edgeLabel;html=1;align=center;verticalAlign=middle;resizable=0;points=[];fontSize=16;rounded=1;sketch=1;" parent="NBqt7sdWPjNchdqozeQn-88" vertex="1" connectable="0">
          <mxGeometry x="-0.7115" y="-2" relative="1" as="geometry">
            <mxPoint x="25.05" as="offset" />
          </mxGeometry>
        </mxCell>
        <mxCell id="NBqt7sdWPjNchdqozeQn-90" value="SeleccionÃ³ gaseosa" style="strokeWidth=2;html=1;shape=mxgraph.flowchart.decision;whiteSpace=wrap;fontSize=12;rounded=1;sketch=1;" parent="1" vertex="1">
          <mxGeometry x="-495.99999999999994" y="2756" width="100" height="100" as="geometry" />
        </mxCell>
        <mxCell id="NBqt7sdWPjNchdqozeQn-91" style="edgeStyle=orthogonalEdgeStyle;orthogonalLoop=1;jettySize=auto;html=1;entryX=0;entryY=0.5;entryDx=0;entryDy=0;fontSize=16;sketch=1;curved=1;" parent="1" source="NBqt7sdWPjNchdqozeQn-92" target="NBqt7sdWPjNchdqozeQn-68" edge="1">
          <mxGeometry relative="1" as="geometry" />
        </mxCell>
        <mxCell id="NBqt7sdWPjNchdqozeQn-92" value="Â¿QuerÃ©s agrandar gaseosa y/o papas? Envia el nÃºmero de tu opciÃ³n:&lt;br&gt;&lt;ol&gt;&lt;li&gt;Agrandar gaseosa y papas (+$$).&lt;/li&gt;&lt;li&gt;Agrandar sÃ³lo gaseosa (+$$).&lt;/li&gt;&lt;li&gt;Agrandar sÃ³lo papas (+$$)&lt;/li&gt;&lt;li&gt;Continuar sin modificar.&lt;/li&gt;&lt;/ol&gt;" style="whiteSpace=wrap;html=1;absoluteArcSize=1;arcSize=14;strokeWidth=2;fontSize=12;align=left;rounded=1;sketch=1;" parent="1" vertex="1">
          <mxGeometry x="-740" y="2876" width="230.01" height="120" as="geometry" />
        </mxCell>
        <mxCell id="NBqt7sdWPjNchdqozeQn-93" style="edgeStyle=orthogonalEdgeStyle;orthogonalLoop=1;jettySize=auto;html=1;sketch=1;curved=1;" parent="1" source="NBqt7sdWPjNchdqozeQn-94" target="NBqt7sdWPjNchdqozeQn-68" edge="1">
          <mxGeometry relative="1" as="geometry" />
        </mxCell>
        <mxCell id="NBqt7sdWPjNchdqozeQn-94" value="Desea agrandar las papas?. Envie el nÃºmero de su opciÃ³n:&lt;br&gt;&lt;ol&gt;&lt;li&gt;Agrandar papas (+$$).&lt;/li&gt;&lt;li&gt;Continuar sin modificar.&lt;/li&gt;&lt;/ol&gt;" style="whiteSpace=wrap;html=1;absoluteArcSize=1;arcSize=14;strokeWidth=2;fontSize=12;align=left;rounded=1;sketch=1;" parent="1" vertex="1">
          <mxGeometry x="-475.4799999999999" y="2976" width="230.01" height="100" as="geometry" />
        </mxCell>
        <mxCell id="NBqt7sdWPjNchdqozeQn-95" style="edgeStyle=orthogonalEdgeStyle;orthogonalLoop=1;jettySize=auto;html=1;fontSize=16;entryX=0.5;entryY=0;entryDx=0;entryDy=0;sketch=1;curved=1;" parent="1" source="NBqt7sdWPjNchdqozeQn-96" target="NBqt7sdWPjNchdqozeQn-102" edge="1">
          <mxGeometry relative="1" as="geometry">
            <mxPoint x="-34.85000000000001" y="-1515" as="targetPoint" />
          </mxGeometry>
        </mxCell>
        <mxCell id="NBqt7sdWPjNchdqozeQn-96" value="Welcome dear customer to the BK / Dominos whatsapp, we want to offer you the best experience for this we need to do the user registration for one time. Please tell me your name and surname.&amp;nbsp;" style="whiteSpace=wrap;html=1;absoluteArcSize=1;arcSize=14;strokeWidth=2;align=left;spacingLeft=4;rounded=1;sketch=1;" parent="1" vertex="1">
          <mxGeometry x="-139.57999999999998" y="-1700" width="204.73" height="110" as="geometry" />
        </mxCell>
        <mxCell id="NBqt7sdWPjNchdqozeQn-97" style="edgeStyle=orthogonalEdgeStyle;orthogonalLoop=1;jettySize=auto;html=1;fontSize=16;entryX=0.25;entryY=0;entryDx=0;entryDy=0;sketch=1;curved=1;" parent="1" source="NBqt7sdWPjNchdqozeQn-98" target="NBqt7sdWPjNchdqozeQn-134" edge="1">
          <mxGeometry relative="1" as="geometry">
            <mxPoint x="-330" y="-700" as="targetPoint" />
          </mxGeometry>
        </mxCell>
        <mxCell id="NBqt7sdWPjNchdqozeQn-98" value="Hello &lt;b&gt;Juan PÃ©rez&lt;/b&gt;, welcome to the BK / Dominos whatsapp, how can we help you?&amp;nbsp;" style="whiteSpace=wrap;html=1;absoluteArcSize=1;arcSize=14;strokeWidth=2;align=left;spacingLeft=4;rounded=1;sketch=1;" parent="1" vertex="1">
          <mxGeometry x="-513.5999999999999" y="-910" width="190" height="60" as="geometry" />
        </mxCell>
        <mxCell id="NBqt7sdWPjNchdqozeQn-99" style="edgeStyle=orthogonalEdgeStyle;orthogonalLoop=1;jettySize=auto;html=1;fontSize=16;sketch=1;curved=1;" parent="1" source="NBqt7sdWPjNchdqozeQn-100" target="NBqt7sdWPjNchdqozeQn-72" edge="1">
          <mxGeometry relative="1" as="geometry" />
        </mxCell>
        <mxCell id="NBqt7sdWPjNchdqozeQn-100" value="Casi terminamos, este es el detalle de tu pedido:&lt;br style=&quot;font-size: 12px&quot;&gt;X producto1: $&lt;br style=&quot;font-size: 12px&quot;&gt;Y producto2: $$&lt;br style=&quot;font-size: 12px&quot;&gt;Z producto3: $$$&lt;br style=&quot;font-size: 12px&quot;&gt;delivery: $$$$&lt;br style=&quot;font-size: 12px&quot;&gt;total: 10$&lt;br style=&quot;font-size: 12px&quot;&gt;Para ir terminando sÃ³lo falta que me indiques tu forma de pago (el delivery se encargarÃ¡ del cobro):&lt;br&gt;&lt;blockquote style=&quot;margin: 0px 0px 0px 40px ; border: none ; padding: 0px&quot;&gt;1. Pago en efectivo.&lt;/blockquote&gt;&lt;blockquote style=&quot;margin: 0px 0px 0px 40px ; border: none ; padding: 0px&quot;&gt;2. Pago con tarjeta dÃ©bito/crÃ©dito.&lt;/blockquote&gt;" style="whiteSpace=wrap;html=1;absoluteArcSize=1;arcSize=14;strokeWidth=2;labelBackgroundColor=none;fillColor=none;fontSize=12;align=left;spacingTop=0;spacingLeft=3;rounded=1;sketch=1;" parent="1" vertex="1">
          <mxGeometry x="-422.01" y="3870" width="350" height="170" as="geometry" />
        </mxCell>
        <mxCell id="NBqt7sdWPjNchdqozeQn-101" style="edgeStyle=orthogonalEdgeStyle;orthogonalLoop=1;jettySize=auto;html=1;entryX=0.446;entryY=0.05;entryDx=0;entryDy=0;entryPerimeter=0;sketch=1;curved=1;" parent="1" source="NBqt7sdWPjNchdqozeQn-102" target="NBqt7sdWPjNchdqozeQn-108" edge="1">
          <mxGeometry relative="1" as="geometry">
            <mxPoint x="-78.53999999999999" y="-1000" as="targetPoint" />
          </mxGeometry>
        </mxCell>
        <mxCell id="NBqt7sdWPjNchdqozeQn-102" value="The user indicates his first and last name&amp;nbsp;" style="whiteSpace=wrap;html=1;absoluteArcSize=1;arcSize=14;strokeWidth=2;rounded=1;sketch=1;" parent="1" vertex="1">
          <mxGeometry x="-167.01999999999998" y="-1080" width="190" height="40" as="geometry" />
        </mxCell>
        <mxCell id="NBqt7sdWPjNchdqozeQn-103" style="edgeStyle=orthogonalEdgeStyle;orthogonalLoop=1;jettySize=auto;html=1;entryX=0.806;entryY=0;entryDx=0;entryDy=0;entryPerimeter=0;sketch=1;curved=1;" parent="1" source="NBqt7sdWPjNchdqozeQn-104" target="NBqt7sdWPjNchdqozeQn-134" edge="1">
          <mxGeometry relative="1" as="geometry">
            <mxPoint x="-160" y="-690" as="targetPoint" />
          </mxGeometry>
        </mxCell>
        <mxCell id="NBqt7sdWPjNchdqozeQn-104" value="Nice to meet you &lt;b&gt;Juan PÃ©rez&lt;/b&gt;, thank you for registering with us, how can we help you?&amp;nbsp;" style="whiteSpace=wrap;html=1;absoluteArcSize=1;arcSize=14;strokeWidth=2;rounded=1;sketch=1;" parent="1" vertex="1">
          <mxGeometry x="-167.01999999999998" y="-860" width="184.73" height="100" as="geometry" />
        </mxCell>
        <mxCell id="NBqt7sdWPjNchdqozeQn-105" style="edgeStyle=orthogonalEdgeStyle;orthogonalLoop=1;jettySize=auto;html=1;entryX=0.5;entryY=0;entryDx=0;entryDy=0;exitX=0.5;exitY=1;exitDx=0;exitDy=0;sketch=1;curved=1;" parent="1" source="NBqt7sdWPjNchdqozeQn-108" target="NBqt7sdWPjNchdqozeQn-107" edge="1">
          <mxGeometry relative="1" as="geometry">
            <mxPoint x="-78.53999999999999" y="-970" as="sourcePoint" />
          </mxGeometry>
        </mxCell>
        <mxCell id="NBqt7sdWPjNchdqozeQn-106" style="edgeStyle=orthogonalEdgeStyle;orthogonalLoop=1;jettySize=auto;html=1;sketch=1;curved=1;" parent="1" source="NBqt7sdWPjNchdqozeQn-107" target="NBqt7sdWPjNchdqozeQn-104" edge="1">
          <mxGeometry relative="1" as="geometry" />
        </mxCell>
        <mxCell id="NBqt7sdWPjNchdqozeQn-107" value="User indicates ci or ruc&amp;nbsp;" style="whiteSpace=wrap;html=1;absoluteArcSize=1;arcSize=14;strokeWidth=2;rounded=1;sketch=1;" parent="1" vertex="1">
          <mxGeometry x="-167.38" y="-930" width="190" height="40" as="geometry" />
        </mxCell>
        <mxCell id="NBqt7sdWPjNchdqozeQn-108" value="CI o RUC:" style="whiteSpace=wrap;html=1;absoluteArcSize=1;arcSize=14;strokeWidth=2;rounded=1;sketch=1;" parent="1" vertex="1">
          <mxGeometry x="-167.02000000000004" y="-1000" width="190" height="40" as="geometry" />
        </mxCell>
        <mxCell id="NBqt7sdWPjNchdqozeQn-109" style="edgeStyle=orthogonalEdgeStyle;orthogonalLoop=1;jettySize=auto;html=1;sketch=1;curved=1;" parent="1" source="NBqt7sdWPjNchdqozeQn-110" target="NBqt7sdWPjNchdqozeQn-113" edge="1">
          <mxGeometry relative="1" as="geometry" />
        </mxCell>
        <mxCell id="NBqt7sdWPjNchdqozeQn-110" value="The user writes his address&amp;nbsp;" style="whiteSpace=wrap;html=1;absoluteArcSize=1;arcSize=14;strokeWidth=2;rounded=1;sketch=1;" parent="1" vertex="1">
          <mxGeometry x="-259.26" y="280" width="180" height="40" as="geometry" />
        </mxCell>
        <mxCell id="NBqt7sdWPjNchdqozeQn-111" style="edgeStyle=orthogonalEdgeStyle;orthogonalLoop=1;jettySize=auto;html=1;entryX=0.5;entryY=0;entryDx=0;entryDy=0;entryPerimeter=0;sketch=1;curved=1;" parent="1" source="NBqt7sdWPjNchdqozeQn-113" target="NBqt7sdWPjNchdqozeQn-118" edge="1">
          <mxGeometry relative="1" as="geometry" />
        </mxCell>
        <mxCell id="NBqt7sdWPjNchdqozeQn-112" value="1" style="edgeLabel;html=1;align=center;verticalAlign=middle;resizable=0;points=[];fontSize=16;rounded=1;sketch=1;" parent="NBqt7sdWPjNchdqozeQn-111" vertex="1" connectable="0">
          <mxGeometry x="-0.0892" y="4" relative="1" as="geometry">
            <mxPoint x="-56.2" y="16" as="offset" />
          </mxGeometry>
        </mxCell>
        <mxCell id="NBqt7sdWPjNchdqozeQn-113" value="Great, we located this approximate address on the map, could you confirm::&lt;br&gt;&lt;div style=&quot;text-align: left&quot;&gt;&lt;span&gt;1. Confirm approximate address (it will be used to locate your closest BK)..&lt;/span&gt;&lt;/div&gt;&lt;div style=&quot;text-align: left&quot;&gt;&lt;span&gt;2.&amp;nbsp;&lt;/span&gt;&lt;span&gt;Enter address with more details.&amp;nbsp;&lt;/span&gt;&lt;/div&gt;" style="whiteSpace=wrap;html=1;absoluteArcSize=1;arcSize=14;strokeWidth=2;spacingLeft=3;rounded=1;sketch=1;" parent="1" vertex="1">
          <mxGeometry x="-330.01" y="380" width="440" height="100" as="geometry" />
        </mxCell>
        <mxCell id="NBqt7sdWPjNchdqozeQn-114" style="edgeStyle=orthogonalEdgeStyle;orthogonalLoop=1;jettySize=auto;html=1;sketch=1;curved=1;" parent="1" source="NBqt7sdWPjNchdqozeQn-118" target="NBqt7sdWPjNchdqozeQn-120" edge="1">
          <mxGeometry relative="1" as="geometry" />
        </mxCell>
        <mxCell id="NBqt7sdWPjNchdqozeQn-115" value="2" style="edgeLabel;html=1;align=center;verticalAlign=middle;resizable=0;points=[];fontSize=17;rounded=1;sketch=1;" parent="NBqt7sdWPjNchdqozeQn-114" vertex="1" connectable="0">
          <mxGeometry x="-0.2153" y="1" relative="1" as="geometry">
            <mxPoint x="164.97000000000003" y="-79" as="offset" />
          </mxGeometry>
        </mxCell>
        <mxCell id="NBqt7sdWPjNchdqozeQn-116" style="edgeStyle=orthogonalEdgeStyle;orthogonalLoop=1;jettySize=auto;html=1;fontSize=16;sketch=1;curved=1;" parent="1" source="NBqt7sdWPjNchdqozeQn-118" target="NBqt7sdWPjNchdqozeQn-15" edge="1">
          <mxGeometry relative="1" as="geometry" />
        </mxCell>
        <mxCell id="NBqt7sdWPjNchdqozeQn-117" value="1" style="edgeLabel;html=1;align=center;verticalAlign=middle;resizable=0;points=[];fontSize=16;rounded=1;sketch=1;" parent="NBqt7sdWPjNchdqozeQn-116" vertex="1" connectable="0">
          <mxGeometry x="-0.4406" y="5" relative="1" as="geometry">
            <mxPoint x="17.65" y="80" as="offset" />
          </mxGeometry>
        </mxCell>
        <mxCell id="NBqt7sdWPjNchdqozeQn-118" value="" style="strokeWidth=2;html=1;shape=mxgraph.flowchart.decision;whiteSpace=wrap;rounded=1;sketch=1;" parent="1" vertex="1">
          <mxGeometry x="-292.9699999999999" y="560" width="100" height="60" as="geometry" />
        </mxCell>
        <mxCell id="NBqt7sdWPjNchdqozeQn-119" style="edgeStyle=orthogonalEdgeStyle;orthogonalLoop=1;jettySize=auto;html=1;entryX=0.5;entryY=0;entryDx=0;entryDy=0;fontSize=17;sketch=1;curved=1;" parent="1" source="NBqt7sdWPjNchdqozeQn-120" target="NBqt7sdWPjNchdqozeQn-122" edge="1">
          <mxGeometry relative="1" as="geometry">
            <mxPoint x="253.6900000000001" y="470" as="targetPoint" />
          </mxGeometry>
        </mxCell>
        <mxCell id="NBqt7sdWPjNchdqozeQn-120" value="Indicate your address in a single line (do not forget to add the neighborhood)&amp;nbsp;" style="whiteSpace=wrap;html=1;absoluteArcSize=1;arcSize=14;strokeWidth=2;rounded=1;sketch=1;" parent="1" vertex="1">
          <mxGeometry x="148.77" y="500" width="166.3" height="60" as="geometry" />
        </mxCell>
        <mxCell id="NBqt7sdWPjNchdqozeQn-121" style="edgeStyle=orthogonalEdgeStyle;orthogonalLoop=1;jettySize=auto;html=1;entryX=0.5;entryY=0;entryDx=0;entryDy=0;entryPerimeter=0;fontSize=12;sketch=1;curved=1;" parent="1" source="NBqt7sdWPjNchdqozeQn-122" target="NBqt7sdWPjNchdqozeQn-127" edge="1">
          <mxGeometry relative="1" as="geometry" />
        </mxCell>
        <mxCell id="NBqt7sdWPjNchdqozeQn-122" value="&lt;div&gt;Ubicamos esta direcciÃ³n aproximada en el mapa, podrÃ­a confirmarnos:&lt;/div&gt;&lt;div&gt;1. Confirmar direcciÃ³n aproximada (se utilizarÃ¡ para ubicar su BK mÃ¡s cercano).&lt;/div&gt;&lt;div&gt;2. Compartir ubicaciÃ³n actual.&lt;/div&gt;" style="whiteSpace=wrap;html=1;absoluteArcSize=1;arcSize=14;strokeWidth=2;fontSize=12;align=left;spacingLeft=2;rounded=1;sketch=1;" parent="1" vertex="1">
          <mxGeometry x="82.63000000000001" y="610" width="364.89" height="80" as="geometry" />
        </mxCell>
        <mxCell id="NBqt7sdWPjNchdqozeQn-123" style="edgeStyle=orthogonalEdgeStyle;orthogonalLoop=1;jettySize=auto;html=1;entryX=0.5;entryY=0;entryDx=0;entryDy=0;fontSize=12;sketch=1;curved=1;" parent="1" source="NBqt7sdWPjNchdqozeQn-127" target="NBqt7sdWPjNchdqozeQn-129" edge="1">
          <mxGeometry relative="1" as="geometry" />
        </mxCell>
        <mxCell id="NBqt7sdWPjNchdqozeQn-124" value="2" style="edgeLabel;html=1;align=center;verticalAlign=middle;resizable=0;points=[];fontSize=16;rounded=1;sketch=1;" parent="NBqt7sdWPjNchdqozeQn-123" vertex="1" connectable="0">
          <mxGeometry x="0.2727" y="-1" relative="1" as="geometry">
            <mxPoint x="14.690000000000005" y="2" as="offset" />
          </mxGeometry>
        </mxCell>
        <mxCell id="NBqt7sdWPjNchdqozeQn-125" style="edgeStyle=orthogonalEdgeStyle;orthogonalLoop=1;jettySize=auto;html=1;entryX=0.5;entryY=0;entryDx=0;entryDy=0;entryPerimeter=0;fontSize=16;sketch=1;curved=1;" parent="1" source="NBqt7sdWPjNchdqozeQn-127" target="NBqt7sdWPjNchdqozeQn-15" edge="1">
          <mxGeometry relative="1" as="geometry" />
        </mxCell>
        <mxCell id="NBqt7sdWPjNchdqozeQn-126" value="1" style="edgeLabel;html=1;align=center;verticalAlign=middle;resizable=0;points=[];fontSize=16;rounded=1;sketch=1;" parent="NBqt7sdWPjNchdqozeQn-125" vertex="1" connectable="0">
          <mxGeometry x="0.2484" y="-2" relative="1" as="geometry">
            <mxPoint x="80.91999999999999" y="37" as="offset" />
          </mxGeometry>
        </mxCell>
        <mxCell id="NBqt7sdWPjNchdqozeQn-127" value="" style="strokeWidth=2;html=1;shape=mxgraph.flowchart.decision;whiteSpace=wrap;fontSize=12;rounded=1;sketch=1;" parent="1" vertex="1">
          <mxGeometry x="215.07999999999998" y="720" width="100" height="70" as="geometry" />
        </mxCell>
        <mxCell id="NBqt7sdWPjNchdqozeQn-128" style="edgeStyle=orthogonalEdgeStyle;orthogonalLoop=1;jettySize=auto;html=1;fontSize=12;sketch=1;curved=1;" parent="1" source="NBqt7sdWPjNchdqozeQn-129" target="NBqt7sdWPjNchdqozeQn-131" edge="1">
          <mxGeometry relative="1" as="geometry" />
        </mxCell>
        <mxCell id="NBqt7sdWPjNchdqozeQn-129" value="Please share the current or delivery location:&amp;nbsp;" style="whiteSpace=wrap;html=1;absoluteArcSize=1;arcSize=14;strokeWidth=2;fontSize=12;rounded=1;sketch=1;" parent="1" vertex="1">
          <mxGeometry x="205.08" y="840" width="120" height="50" as="geometry" />
        </mxCell>
        <mxCell id="NBqt7sdWPjNchdqozeQn-130" style="edgeStyle=orthogonalEdgeStyle;orthogonalLoop=1;jettySize=auto;html=1;fontSize=12;sketch=1;curved=1;" parent="1" source="NBqt7sdWPjNchdqozeQn-131" edge="1">
          <mxGeometry relative="1" as="geometry">
            <mxPoint x="-190" y="970" as="targetPoint" />
          </mxGeometry>
        </mxCell>
        <mxCell id="NBqt7sdWPjNchdqozeQn-131" value="User shares location&amp;nbsp;" style="whiteSpace=wrap;html=1;absoluteArcSize=1;arcSize=14;strokeWidth=2;fontSize=12;rounded=1;sketch=1;" parent="1" vertex="1">
          <mxGeometry x="205.08" y="930" width="120" height="35" as="geometry" />
        </mxCell>
        <mxCell id="NBqt7sdWPjNchdqozeQn-132" value="1" style="edgeLabel;html=1;align=center;verticalAlign=middle;resizable=0;points=[];fontSize=16;rounded=1;sketch=1;" parent="1" vertex="1" connectable="0">
          <mxGeometry x="-167.85" y="940" as="geometry" />
        </mxCell>
        <mxCell id="NBqt7sdWPjNchdqozeQn-133" style="edgeStyle=orthogonalEdgeStyle;orthogonalLoop=1;jettySize=auto;html=1;sketch=1;curved=1;" parent="1" source="NBqt7sdWPjNchdqozeQn-134" target="NBqt7sdWPjNchdqozeQn-141" edge="1">
          <mxGeometry relative="1" as="geometry" />
        </mxCell>
        <mxCell id="NBqt7sdWPjNchdqozeQn-134" value="Enter the number of your choice:&lt;br&gt;&lt;ol&gt;&lt;li style=&quot;text-align: left&quot;&gt;Place an order from Burger King.&lt;/li&gt;&lt;li style=&quot;text-align: left&quot;&gt;Place an Order for Dominos.&lt;/li&gt;&lt;li style=&quot;text-align: left&quot;&gt;Contact a representative.&amp;nbsp;.&lt;/li&gt;&lt;/ol&gt;" style="whiteSpace=wrap;html=1;absoluteArcSize=1;arcSize=14;strokeWidth=2;rounded=1;sketch=1;" parent="1" vertex="1">
          <mxGeometry x="-330.01000000000005" y="-630" width="241.49" height="90" as="geometry" />
        </mxCell>
        <mxCell id="NBqt7sdWPjNchdqozeQn-135" style="edgeStyle=orthogonalEdgeStyle;orthogonalLoop=1;jettySize=auto;html=1;fontSize=16;sketch=1;curved=1;" parent="1" source="NBqt7sdWPjNchdqozeQn-141" target="NBqt7sdWPjNchdqozeQn-142" edge="1">
          <mxGeometry relative="1" as="geometry">
            <mxPoint x="-570" y="-534" as="targetPoint" />
          </mxGeometry>
        </mxCell>
        <mxCell id="NBqt7sdWPjNchdqozeQn-136" value="3" style="edgeLabel;html=1;align=center;verticalAlign=middle;resizable=0;points=[];fontSize=16;rounded=1;sketch=1;" parent="NBqt7sdWPjNchdqozeQn-135" vertex="1" connectable="0">
          <mxGeometry x="-0.3148" y="2" relative="1" as="geometry">
            <mxPoint x="-85" y="-58" as="offset" />
          </mxGeometry>
        </mxCell>
        <mxCell id="NBqt7sdWPjNchdqozeQn-137" style="edgeStyle=orthogonalEdgeStyle;orthogonalLoop=1;jettySize=auto;html=1;entryX=0.5;entryY=0;entryDx=0;entryDy=0;entryPerimeter=0;fontSize=16;sketch=1;curved=1;" parent="1" source="NBqt7sdWPjNchdqozeQn-141" target="NBqt7sdWPjNchdqozeQn-147" edge="1">
          <mxGeometry relative="1" as="geometry" />
        </mxCell>
        <mxCell id="NBqt7sdWPjNchdqozeQn-138" value="1" style="edgeLabel;html=1;align=center;verticalAlign=middle;resizable=0;points=[];fontSize=16;" parent="NBqt7sdWPjNchdqozeQn-137" vertex="1" connectable="0">
          <mxGeometry x="0.238" relative="1" as="geometry">
            <mxPoint x="10.81" y="-0.1800000000000015" as="offset" />
          </mxGeometry>
        </mxCell>
        <mxCell id="NBqt7sdWPjNchdqozeQn-139" style="edgeStyle=orthogonalEdgeStyle;orthogonalLoop=1;jettySize=auto;html=1;sketch=1;curved=1;" parent="1" source="NBqt7sdWPjNchdqozeQn-141" target="NBqt7sdWPjNchdqozeQn-216" edge="1">
          <mxGeometry relative="1" as="geometry" />
        </mxCell>
        <mxCell id="NBqt7sdWPjNchdqozeQn-140" value="2" style="edgeLabel;html=1;align=center;verticalAlign=middle;resizable=0;points=[];fontSize=16;" parent="NBqt7sdWPjNchdqozeQn-139" vertex="1" connectable="0">
          <mxGeometry x="-0.2467" y="2" relative="1" as="geometry">
            <mxPoint x="68.20000000000002" y="-7" as="offset" />
          </mxGeometry>
        </mxCell>
        <mxCell id="NBqt7sdWPjNchdqozeQn-141" value="" style="strokeWidth=2;html=1;shape=mxgraph.flowchart.decision;whiteSpace=wrap;rounded=1;sketch=1;" parent="1" vertex="1">
          <mxGeometry x="-297.01" y="-484" width="100" height="100" as="geometry" />
        </mxCell>
        <mxCell id="NBqt7sdWPjNchdqozeQn-142" value="Your conversation is being redirected to a representative, you will be answered shortly.&amp;nbsp;" style="whiteSpace=wrap;html=1;absoluteArcSize=1;arcSize=14;strokeWidth=2;fontSize=16;rounded=1;sketch=1;" parent="1" vertex="1">
          <mxGeometry x="-647.26" y="-584" width="140" height="146" as="geometry" />
        </mxCell>
        <mxCell id="NBqt7sdWPjNchdqozeQn-143" style="edgeStyle=orthogonalEdgeStyle;orthogonalLoop=1;jettySize=auto;html=1;fontSize=16;sketch=1;curved=1;" parent="1" source="NBqt7sdWPjNchdqozeQn-147" target="NBqt7sdWPjNchdqozeQn-149" edge="1">
          <mxGeometry relative="1" as="geometry" />
        </mxCell>
        <mxCell id="NBqt7sdWPjNchdqozeQn-144" value="si" style="edgeLabel;html=1;align=center;verticalAlign=middle;resizable=0;points=[];fontSize=16;rounded=1;sketch=1;" parent="NBqt7sdWPjNchdqozeQn-143" vertex="1" connectable="0">
          <mxGeometry x="0.2587" relative="1" as="geometry">
            <mxPoint x="-3.1899999999999995" y="-20" as="offset" />
          </mxGeometry>
        </mxCell>
        <mxCell id="NBqt7sdWPjNchdqozeQn-145" style="edgeStyle=orthogonalEdgeStyle;orthogonalLoop=1;jettySize=auto;html=1;fontSize=16;entryX=0.5;entryY=0;entryDx=0;entryDy=0;sketch=1;curved=1;" parent="1" source="NBqt7sdWPjNchdqozeQn-147" target="NBqt7sdWPjNchdqozeQn-70" edge="1">
          <mxGeometry relative="1" as="geometry">
            <mxPoint x="-244.80999999999995" y="-130" as="targetPoint" />
          </mxGeometry>
        </mxCell>
        <mxCell id="NBqt7sdWPjNchdqozeQn-146" value="NO" style="edgeLabel;html=1;align=center;verticalAlign=middle;resizable=0;points=[];fontSize=16;" parent="NBqt7sdWPjNchdqozeQn-145" vertex="1" connectable="0">
          <mxGeometry x="0.2406" relative="1" as="geometry">
            <mxPoint x="13" y="9" as="offset" />
          </mxGeometry>
        </mxCell>
        <mxCell id="NBqt7sdWPjNchdqozeQn-147" value="Client has registered addresses&amp;nbsp;" style="strokeWidth=2;html=1;shape=mxgraph.flowchart.decision;whiteSpace=wrap;fontSize=16;rounded=1;sketch=1;" parent="1" vertex="1">
          <mxGeometry x="-327.68" y="-320" width="161.34" height="150" as="geometry" />
        </mxCell>
        <mxCell id="NBqt7sdWPjNchdqozeQn-148" style="edgeStyle=orthogonalEdgeStyle;orthogonalLoop=1;jettySize=auto;html=1;fontSize=16;sketch=1;curved=1;" parent="1" source="NBqt7sdWPjNchdqozeQn-149" target="NBqt7sdWPjNchdqozeQn-156" edge="1">
          <mxGeometry relative="1" as="geometry" />
        </mxCell>
        <mxCell id="NBqt7sdWPjNchdqozeQn-149" value="Please enter the number that corresponds to the delivery address of your order:&amp;nbsp;&lt;br&gt;&lt;ol&gt;&lt;li style=&quot;text-align: left&quot;&gt;Registered address A.&lt;br&gt;&lt;/li&gt;&lt;li style=&quot;text-align: left&quot;&gt;Registered address B.&lt;br&gt;&lt;/li&gt;&lt;li style=&quot;text-align: left&quot;&gt;Registered address C.&lt;br&gt;&lt;/li&gt;&lt;li style=&quot;text-align: left&quot;&gt;Add new address.&lt;/li&gt;&lt;/ol&gt;" style="whiteSpace=wrap;html=1;absoluteArcSize=1;arcSize=14;strokeWidth=2;fontSize=16;rounded=1;sketch=1;" parent="1" vertex="1">
          <mxGeometry x="-710" y="-410" width="250" height="180" as="geometry" />
        </mxCell>
        <mxCell id="NBqt7sdWPjNchdqozeQn-150" style="edgeStyle=orthogonalEdgeStyle;orthogonalLoop=1;jettySize=auto;html=1;entryX=0;entryY=0.5;entryDx=0;entryDy=0;fontSize=16;sketch=1;curved=1;" parent="1" source="NBqt7sdWPjNchdqozeQn-151" target="NBqt7sdWPjNchdqozeQn-110" edge="1">
          <mxGeometry relative="1" as="geometry">
            <Array as="points">
              <mxPoint x="-420" y="300" />
            </Array>
          </mxGeometry>
        </mxCell>
        <mxCell id="NBqt7sdWPjNchdqozeQn-151" value="&lt;font style=&quot;font-size: 12px&quot;&gt;Please write the new address in a single line&amp;nbsp;&lt;/font&gt;" style="whiteSpace=wrap;html=1;absoluteArcSize=1;arcSize=14;strokeWidth=2;fontSize=16;rounded=1;sketch=1;" parent="1" vertex="1">
          <mxGeometry x="-507.26" y="-40" width="151.82" height="60" as="geometry" />
        </mxCell>
        <mxCell id="NBqt7sdWPjNchdqozeQn-152" style="edgeStyle=orthogonalEdgeStyle;orthogonalLoop=1;jettySize=auto;html=1;entryX=0.5;entryY=0;entryDx=0;entryDy=0;fontSize=16;sketch=1;curved=1;" parent="1" source="NBqt7sdWPjNchdqozeQn-156" target="NBqt7sdWPjNchdqozeQn-151" edge="1">
          <mxGeometry relative="1" as="geometry" />
        </mxCell>
        <mxCell id="NBqt7sdWPjNchdqozeQn-153" value="4" style="edgeLabel;html=1;align=center;verticalAlign=middle;resizable=0;points=[];fontSize=16;rounded=1;sketch=1;" parent="NBqt7sdWPjNchdqozeQn-152" vertex="1" connectable="0">
          <mxGeometry x="-0.1735" y="-15" relative="1" as="geometry">
            <mxPoint x="-0.46" y="-25" as="offset" />
          </mxGeometry>
        </mxCell>
        <mxCell id="NBqt7sdWPjNchdqozeQn-154" style="edgeStyle=orthogonalEdgeStyle;orthogonalLoop=1;jettySize=auto;html=1;entryX=0;entryY=0.5;entryDx=0;entryDy=0;fontSize=16;exitX=0.5;exitY=1;exitDx=0;exitDy=0;exitPerimeter=0;sketch=1;curved=1;" parent="1" source="NBqt7sdWPjNchdqozeQn-156" target="NBqt7sdWPjNchdqozeQn-58" edge="1">
          <mxGeometry relative="1" as="geometry">
            <Array as="points">
              <mxPoint x="-660" y="-50" />
              <mxPoint x="-660" y="1380" />
            </Array>
          </mxGeometry>
        </mxCell>
        <mxCell id="NBqt7sdWPjNchdqozeQn-155" value="1,2,3" style="edgeLabel;html=1;align=center;verticalAlign=middle;resizable=0;points=[];fontSize=16;rounded=1;sketch=1;" parent="NBqt7sdWPjNchdqozeQn-154" vertex="1" connectable="0">
          <mxGeometry x="-0.8731" y="25" relative="1" as="geometry">
            <mxPoint x="-25" as="offset" />
          </mxGeometry>
        </mxCell>
        <mxCell id="NBqt7sdWPjNchdqozeQn-156" value="" style="strokeWidth=2;html=1;shape=mxgraph.flowchart.decision;whiteSpace=wrap;fontSize=16;rounded=1;sketch=1;" parent="1" vertex="1">
          <mxGeometry x="-660" y="-150" width="100" height="100" as="geometry" />
        </mxCell>
        <mxCell id="NBqt7sdWPjNchdqozeQn-157" style="edgeStyle=orthogonalEdgeStyle;orthogonalLoop=1;jettySize=auto;html=1;entryX=0.5;entryY=0;entryDx=0;entryDy=0;entryPerimeter=0;fontSize=16;sketch=1;curved=1;" parent="1" source="NBqt7sdWPjNchdqozeQn-158" target="NBqt7sdWPjNchdqozeQn-165" edge="1">
          <mxGeometry relative="1" as="geometry" />
        </mxCell>
        <mxCell id="NBqt7sdWPjNchdqozeQn-158" value="&lt;font style=&quot;font-size: 12px&quot;&gt;Desea agregar/quitar algÃºn ingrediente?:&lt;br&gt;&lt;ol&gt;&lt;li style=&quot;text-align: left&quot;&gt;Agregar Ingrediente.&lt;/li&gt;&lt;li style=&quot;text-align: left&quot;&gt;Quitar ingrediente.&lt;/li&gt;&lt;li style=&quot;text-align: left&quot;&gt;Continuar el pedido.&lt;/li&gt;&lt;/ol&gt;&lt;/font&gt;" style="whiteSpace=wrap;html=1;absoluteArcSize=1;arcSize=14;strokeWidth=2;fontSize=16;rounded=1;sketch=1;" parent="1" vertex="1">
          <mxGeometry x="-1322.33" y="2540" width="240" height="100" as="geometry" />
        </mxCell>
        <mxCell id="NBqt7sdWPjNchdqozeQn-159" style="edgeStyle=orthogonalEdgeStyle;orthogonalLoop=1;jettySize=auto;html=1;entryX=1.007;entryY=0.225;entryDx=0;entryDy=0;entryPerimeter=0;fontSize=16;sketch=1;curved=1;" parent="1" source="NBqt7sdWPjNchdqozeQn-165" target="NBqt7sdWPjNchdqozeQn-167" edge="1">
          <mxGeometry relative="1" as="geometry" />
        </mxCell>
        <mxCell id="NBqt7sdWPjNchdqozeQn-160" value="1" style="edgeLabel;html=1;align=center;verticalAlign=middle;resizable=0;points=[];fontSize=16;rounded=1;sketch=1;" parent="NBqt7sdWPjNchdqozeQn-159" vertex="1" connectable="0">
          <mxGeometry x="0.2179" y="-2" relative="1" as="geometry">
            <mxPoint x="21" y="-12" as="offset" />
          </mxGeometry>
        </mxCell>
        <mxCell id="NBqt7sdWPjNchdqozeQn-161" style="edgeStyle=orthogonalEdgeStyle;orthogonalLoop=1;jettySize=auto;html=1;entryX=-0.021;entryY=0.208;entryDx=0;entryDy=0;entryPerimeter=0;fontSize=16;sketch=1;curved=1;" parent="1" source="NBqt7sdWPjNchdqozeQn-165" target="NBqt7sdWPjNchdqozeQn-176" edge="1">
          <mxGeometry relative="1" as="geometry" />
        </mxCell>
        <mxCell id="NBqt7sdWPjNchdqozeQn-162" value="2" style="edgeLabel;html=1;align=center;verticalAlign=middle;resizable=0;points=[];fontSize=16;rounded=1;sketch=1;" parent="NBqt7sdWPjNchdqozeQn-161" vertex="1" connectable="0">
          <mxGeometry x="-0.7308" relative="1" as="geometry">
            <mxPoint x="20.380000000000003" y="-13" as="offset" />
          </mxGeometry>
        </mxCell>
        <mxCell id="NBqt7sdWPjNchdqozeQn-163" style="edgeStyle=orthogonalEdgeStyle;orthogonalLoop=1;jettySize=auto;html=1;fontSize=16;entryX=0;entryY=0.75;entryDx=0;entryDy=0;exitX=0.5;exitY=1;exitDx=0;exitDy=0;exitPerimeter=0;sketch=1;curved=1;" parent="1" source="NBqt7sdWPjNchdqozeQn-165" target="NBqt7sdWPjNchdqozeQn-35" edge="1">
          <mxGeometry relative="1" as="geometry">
            <mxPoint x="-1200" y="3498" as="targetPoint" />
            <Array as="points">
              <mxPoint x="-1202" y="2820" />
              <mxPoint x="-1180" y="2820" />
              <mxPoint x="-1180" y="3460" />
            </Array>
          </mxGeometry>
        </mxCell>
        <mxCell id="NBqt7sdWPjNchdqozeQn-164" value="3" style="edgeLabel;html=1;align=center;verticalAlign=middle;resizable=0;points=[];fontSize=16;rounded=1;sketch=1;" parent="NBqt7sdWPjNchdqozeQn-163" vertex="1" connectable="0">
          <mxGeometry x="-0.9273" y="7" relative="1" as="geometry">
            <mxPoint x="-3" y="4" as="offset" />
          </mxGeometry>
        </mxCell>
        <mxCell id="NBqt7sdWPjNchdqozeQn-165" value="" style="strokeWidth=2;html=1;shape=mxgraph.flowchart.decision;whiteSpace=wrap;fontSize=16;rounded=1;sketch=1;" parent="1" vertex="1">
          <mxGeometry x="-1252.33" y="2680" width="100" height="100" as="geometry" />
        </mxCell>
        <mxCell id="NBqt7sdWPjNchdqozeQn-166" style="edgeStyle=orthogonalEdgeStyle;orthogonalLoop=1;jettySize=auto;html=1;fontSize=16;sketch=1;curved=1;" parent="1" source="NBqt7sdWPjNchdqozeQn-167" target="NBqt7sdWPjNchdqozeQn-172" edge="1">
          <mxGeometry relative="1" as="geometry" />
        </mxCell>
        <mxCell id="NBqt7sdWPjNchdqozeQn-167" value="&lt;font style=&quot;font-size: 12px&quot;&gt;Elija la opciÃ³n del ingrediente a agregar:&lt;br&gt;&lt;ol&gt;&lt;li style=&quot;text-align: left&quot;&gt;&lt;font style=&quot;font-size: 12px&quot;&gt;Pan.&lt;/font&gt;&lt;/li&gt;&lt;li style=&quot;text-align: left&quot;&gt;Carne.&lt;/li&gt;&lt;li style=&quot;text-align: left&quot;&gt;Queso.&lt;/li&gt;&lt;li style=&quot;text-align: left&quot;&gt;Bacon.&lt;/li&gt;&lt;li style=&quot;text-align: left&quot;&gt;Tomate.&lt;/li&gt;&lt;li style=&quot;text-align: left&quot;&gt;Lechuga.&lt;/li&gt;&lt;li style=&quot;text-align: left&quot;&gt;Aderezos.&lt;/li&gt;&lt;li style=&quot;text-align: left&quot;&gt;Pepino.&lt;/li&gt;&lt;li style=&quot;text-align: left&quot;&gt;Cebolla.&lt;/li&gt;&lt;li style=&quot;text-align: left&quot;&gt;Volver al menÃº anterior.&lt;/li&gt;&lt;/ol&gt;&lt;br&gt;&lt;/font&gt;" style="whiteSpace=wrap;html=1;absoluteArcSize=1;arcSize=14;strokeWidth=2;fontSize=16;rounded=1;sketch=1;" parent="1" vertex="1">
          <mxGeometry x="-1480.33" y="2680" width="140" height="240" as="geometry" />
        </mxCell>
        <mxCell id="NBqt7sdWPjNchdqozeQn-168" style="edgeStyle=orthogonalEdgeStyle;orthogonalLoop=1;jettySize=auto;html=1;entryX=0;entryY=0.5;entryDx=0;entryDy=0;fontSize=16;exitX=0;exitY=0.5;exitDx=0;exitDy=0;exitPerimeter=0;sketch=1;curved=1;" parent="1" source="NBqt7sdWPjNchdqozeQn-172" target="NBqt7sdWPjNchdqozeQn-158" edge="1">
          <mxGeometry relative="1" as="geometry">
            <Array as="points">
              <mxPoint x="-1460.33" y="3020" />
              <mxPoint x="-1530.33" y="3020" />
              <mxPoint x="-1530.33" y="2590" />
            </Array>
          </mxGeometry>
        </mxCell>
        <mxCell id="NBqt7sdWPjNchdqozeQn-169" value="10" style="edgeLabel;html=1;align=center;verticalAlign=middle;resizable=0;points=[];fontSize=16;rounded=1;sketch=1;" parent="NBqt7sdWPjNchdqozeQn-168" vertex="1" connectable="0">
          <mxGeometry x="-0.6853" y="-8" relative="1" as="geometry">
            <mxPoint x="22" y="-7" as="offset" />
          </mxGeometry>
        </mxCell>
        <mxCell id="NBqt7sdWPjNchdqozeQn-170" style="edgeStyle=orthogonalEdgeStyle;orthogonalLoop=1;jettySize=auto;html=1;fontSize=16;sketch=1;curved=1;" parent="1" source="NBqt7sdWPjNchdqozeQn-172" target="NBqt7sdWPjNchdqozeQn-174" edge="1">
          <mxGeometry relative="1" as="geometry" />
        </mxCell>
        <mxCell id="NBqt7sdWPjNchdqozeQn-171" value="1 al 9" style="edgeLabel;html=1;align=center;verticalAlign=middle;resizable=0;points=[];fontSize=16;rounded=1;sketch=1;" parent="NBqt7sdWPjNchdqozeQn-170" vertex="1" connectable="0">
          <mxGeometry x="-0.2711" y="2" relative="1" as="geometry">
            <mxPoint x="18" as="offset" />
          </mxGeometry>
        </mxCell>
        <mxCell id="NBqt7sdWPjNchdqozeQn-172" value="" style="strokeWidth=2;html=1;shape=mxgraph.flowchart.decision;whiteSpace=wrap;fontSize=16;rounded=1;sketch=1;" parent="1" vertex="1">
          <mxGeometry x="-1460.33" y="2960" width="100" height="100" as="geometry" />
        </mxCell>
        <mxCell id="NBqt7sdWPjNchdqozeQn-173" style="edgeStyle=orthogonalEdgeStyle;orthogonalLoop=1;jettySize=auto;html=1;entryX=1.029;entryY=0.654;entryDx=0;entryDy=0;entryPerimeter=0;fontSize=16;sketch=1;curved=1;" parent="1" source="NBqt7sdWPjNchdqozeQn-174" target="NBqt7sdWPjNchdqozeQn-167" edge="1">
          <mxGeometry relative="1" as="geometry">
            <Array as="points">
              <mxPoint x="-1260.33" y="3170" />
              <mxPoint x="-1260.33" y="2837" />
            </Array>
          </mxGeometry>
        </mxCell>
        <mxCell id="NBqt7sdWPjNchdqozeQn-174" value="&lt;font style=&quot;font-size: 12px&quot;&gt;El cliente ingresa su opciÃ³n, se muestra un mensaje &quot;el ingrediente X ha sido agregado&quot; y vuelve al menÃº anterior.&lt;/font&gt;" style="whiteSpace=wrap;html=1;absoluteArcSize=1;arcSize=14;strokeWidth=2;fontSize=16;rounded=1;sketch=1;" parent="1" vertex="1">
          <mxGeometry x="-1480.33" y="3170" width="135" height="100" as="geometry" />
        </mxCell>
        <mxCell id="NBqt7sdWPjNchdqozeQn-175" style="edgeStyle=orthogonalEdgeStyle;orthogonalLoop=1;jettySize=auto;html=1;fontSize=16;sketch=1;curved=1;" parent="1" source="NBqt7sdWPjNchdqozeQn-176" target="NBqt7sdWPjNchdqozeQn-181" edge="1">
          <mxGeometry relative="1" as="geometry" />
        </mxCell>
        <mxCell id="NBqt7sdWPjNchdqozeQn-176" value="&lt;font style=&quot;font-size: 12px&quot;&gt;Elija la opciÃ³n del ingrediente a quitar:&lt;br&gt;&lt;ol&gt;&lt;li style=&quot;text-align: left&quot;&gt;&lt;font style=&quot;font-size: 12px&quot;&gt;Pan.&lt;/font&gt;&lt;/li&gt;&lt;li style=&quot;text-align: left&quot;&gt;Carne.&lt;/li&gt;&lt;li style=&quot;text-align: left&quot;&gt;Queso.&lt;/li&gt;&lt;li style=&quot;text-align: left&quot;&gt;Bacon.&lt;/li&gt;&lt;li style=&quot;text-align: left&quot;&gt;Tomate.&lt;/li&gt;&lt;li style=&quot;text-align: left&quot;&gt;Lechuga.&lt;/li&gt;&lt;li style=&quot;text-align: left&quot;&gt;Aderezos.&lt;/li&gt;&lt;li style=&quot;text-align: left&quot;&gt;Pepino.&lt;/li&gt;&lt;li style=&quot;text-align: left&quot;&gt;Cebolla.&lt;/li&gt;&lt;li style=&quot;text-align: left&quot;&gt;Volver al menÃº anterior.&lt;/li&gt;&lt;/ol&gt;&lt;br&gt;&lt;/font&gt;" style="whiteSpace=wrap;html=1;absoluteArcSize=1;arcSize=14;strokeWidth=2;fontSize=16;rounded=1;sketch=1;" parent="1" vertex="1">
          <mxGeometry x="-1060.33" y="2680" width="140" height="240" as="geometry" />
        </mxCell>
        <mxCell id="NBqt7sdWPjNchdqozeQn-177" style="edgeStyle=orthogonalEdgeStyle;orthogonalLoop=1;jettySize=auto;html=1;fontSize=16;sketch=1;curved=1;" parent="1" source="NBqt7sdWPjNchdqozeQn-181" target="NBqt7sdWPjNchdqozeQn-183" edge="1">
          <mxGeometry relative="1" as="geometry" />
        </mxCell>
        <mxCell id="NBqt7sdWPjNchdqozeQn-178" value="1 al 9" style="edgeLabel;html=1;align=center;verticalAlign=middle;resizable=0;points=[];fontSize=16;rounded=1;sketch=1;" parent="NBqt7sdWPjNchdqozeQn-177" vertex="1" connectable="0">
          <mxGeometry x="-0.2711" y="2" relative="1" as="geometry">
            <mxPoint x="18" as="offset" />
          </mxGeometry>
        </mxCell>
        <mxCell id="NBqt7sdWPjNchdqozeQn-179" style="edgeStyle=orthogonalEdgeStyle;orthogonalLoop=1;jettySize=auto;html=1;entryX=1;entryY=0.75;entryDx=0;entryDy=0;fontSize=16;sketch=1;curved=1;" parent="1" source="NBqt7sdWPjNchdqozeQn-181" target="NBqt7sdWPjNchdqozeQn-158" edge="1">
          <mxGeometry relative="1" as="geometry">
            <Array as="points">
              <mxPoint x="-790.33" y="3010" />
              <mxPoint x="-790.33" y="2615" />
            </Array>
          </mxGeometry>
        </mxCell>
        <mxCell id="NBqt7sdWPjNchdqozeQn-180" value="10" style="edgeLabel;html=1;align=center;verticalAlign=middle;resizable=0;points=[];fontSize=16;rounded=1;sketch=1;" parent="NBqt7sdWPjNchdqozeQn-179" vertex="1" connectable="0">
          <mxGeometry x="-0.8614" y="4" relative="1" as="geometry">
            <mxPoint x="-8" y="-26" as="offset" />
          </mxGeometry>
        </mxCell>
        <mxCell id="NBqt7sdWPjNchdqozeQn-181" value="" style="strokeWidth=2;html=1;shape=mxgraph.flowchart.decision;whiteSpace=wrap;fontSize=16;rounded=1;sketch=1;" parent="1" vertex="1">
          <mxGeometry x="-1040.33" y="2960" width="100" height="100" as="geometry" />
        </mxCell>
        <mxCell id="NBqt7sdWPjNchdqozeQn-182" style="edgeStyle=orthogonalEdgeStyle;orthogonalLoop=1;jettySize=auto;html=1;entryX=0;entryY=0.75;entryDx=0;entryDy=0;fontSize=16;sketch=1;curved=1;" parent="1" source="NBqt7sdWPjNchdqozeQn-183" target="NBqt7sdWPjNchdqozeQn-176" edge="1">
          <mxGeometry relative="1" as="geometry">
            <Array as="points">
              <mxPoint x="-1130.33" y="3200" />
              <mxPoint x="-1130.33" y="2860" />
            </Array>
          </mxGeometry>
        </mxCell>
        <mxCell id="NBqt7sdWPjNchdqozeQn-183" value="&lt;font style=&quot;font-size: 12px&quot;&gt;El cliente ingresa su opciÃ³n, se muestra un mensaje &quot;el ingrediente X ha sido quitado&quot; y vuelve al menÃº anterior.&lt;/font&gt;" style="whiteSpace=wrap;html=1;absoluteArcSize=1;arcSize=14;strokeWidth=2;fontSize=16;rounded=1;sketch=1;" parent="1" vertex="1">
          <mxGeometry x="-1060.33" y="3170" width="135" height="100" as="geometry" />
        </mxCell>
        <mxCell id="NBqt7sdWPjNchdqozeQn-184" style="edgeStyle=orthogonalEdgeStyle;orthogonalLoop=1;jettySize=auto;html=1;entryX=0.75;entryY=0;entryDx=0;entryDy=0;fontSize=16;sketch=1;curved=1;" parent="1" source="NBqt7sdWPjNchdqozeQn-188" target="NBqt7sdWPjNchdqozeQn-37" edge="1">
          <mxGeometry relative="1" as="geometry" />
        </mxCell>
        <mxCell id="NBqt7sdWPjNchdqozeQn-185" value="NO" style="edgeLabel;html=1;align=center;verticalAlign=middle;resizable=0;points=[];fontSize=16;rounded=1;sketch=1;" parent="NBqt7sdWPjNchdqozeQn-184" vertex="1" connectable="0">
          <mxGeometry x="-0.6764" y="26" relative="1" as="geometry">
            <mxPoint x="-30" y="96" as="offset" />
          </mxGeometry>
        </mxCell>
        <mxCell id="NBqt7sdWPjNchdqozeQn-186" style="edgeStyle=orthogonalEdgeStyle;orthogonalLoop=1;jettySize=auto;html=1;entryX=0.75;entryY=0;entryDx=0;entryDy=0;fontSize=16;sketch=1;curved=1;" parent="1" source="NBqt7sdWPjNchdqozeQn-188" target="NBqt7sdWPjNchdqozeQn-190" edge="1">
          <mxGeometry relative="1" as="geometry" />
        </mxCell>
        <mxCell id="NBqt7sdWPjNchdqozeQn-187" value="SI" style="edgeLabel;html=1;align=center;verticalAlign=middle;resizable=0;points=[];fontSize=16;rounded=1;sketch=1;" parent="NBqt7sdWPjNchdqozeQn-186" vertex="1" connectable="0">
          <mxGeometry x="-0.4828" y="-6" relative="1" as="geometry">
            <mxPoint y="-13" as="offset" />
          </mxGeometry>
        </mxCell>
        <mxCell id="NBqt7sdWPjNchdqozeQn-188" value="&lt;font style=&quot;font-size: 12px&quot;&gt;Es un producto al que se le pueda agregar o quitar&lt;br&gt;&amp;nbsp;ingredientes?&lt;/font&gt;" style="strokeWidth=2;html=1;shape=mxgraph.flowchart.decision;whiteSpace=wrap;fontSize=16;perimeterSpacing=1;spacingLeft=15;spacingRight=16;rounded=1;sketch=1;" parent="1" vertex="1">
          <mxGeometry x="-153.32" y="2340" width="174.39" height="180" as="geometry" />
        </mxCell>
        <mxCell id="NBqt7sdWPjNchdqozeQn-189" style="edgeStyle=orthogonalEdgeStyle;orthogonalLoop=1;jettySize=auto;html=1;entryX=0.5;entryY=0;entryDx=0;entryDy=0;entryPerimeter=0;fontSize=16;sketch=1;curved=1;" parent="1" source="NBqt7sdWPjNchdqozeQn-190" target="NBqt7sdWPjNchdqozeQn-197" edge="1">
          <mxGeometry relative="1" as="geometry" />
        </mxCell>
        <mxCell id="NBqt7sdWPjNchdqozeQn-190" value="&lt;font style=&quot;font-size: 12px&quot;&gt;Desea agregar/quitar algÃºn ingrediente?:&lt;br&gt;&lt;ol&gt;&lt;li style=&quot;text-align: left&quot;&gt;Agregar Ingrediente.&lt;/li&gt;&lt;li style=&quot;text-align: left&quot;&gt;Quitar ingrediente.&lt;/li&gt;&lt;li style=&quot;text-align: left&quot;&gt;Continuar el pedido.&lt;/li&gt;&lt;/ol&gt;&lt;/font&gt;" style="whiteSpace=wrap;html=1;absoluteArcSize=1;arcSize=14;strokeWidth=2;fontSize=16;rounded=1;sketch=1;" parent="1" vertex="1">
          <mxGeometry x="103.15000000000009" y="2520" width="240" height="100" as="geometry" />
        </mxCell>
        <mxCell id="NBqt7sdWPjNchdqozeQn-191" style="edgeStyle=orthogonalEdgeStyle;orthogonalLoop=1;jettySize=auto;html=1;entryX=1.007;entryY=0.225;entryDx=0;entryDy=0;entryPerimeter=0;fontSize=16;sketch=1;curved=1;" parent="1" source="NBqt7sdWPjNchdqozeQn-197" target="NBqt7sdWPjNchdqozeQn-199" edge="1">
          <mxGeometry relative="1" as="geometry" />
        </mxCell>
        <mxCell id="NBqt7sdWPjNchdqozeQn-192" value="1" style="edgeLabel;html=1;align=center;verticalAlign=middle;resizable=0;points=[];fontSize=16;rounded=1;sketch=1;" parent="NBqt7sdWPjNchdqozeQn-191" vertex="1" connectable="0">
          <mxGeometry x="0.2179" y="-2" relative="1" as="geometry">
            <mxPoint x="21" y="-15" as="offset" />
          </mxGeometry>
        </mxCell>
        <mxCell id="NBqt7sdWPjNchdqozeQn-193" style="edgeStyle=orthogonalEdgeStyle;orthogonalLoop=1;jettySize=auto;html=1;entryX=-0.021;entryY=0.208;entryDx=0;entryDy=0;entryPerimeter=0;fontSize=16;sketch=1;curved=1;" parent="1" source="NBqt7sdWPjNchdqozeQn-197" target="NBqt7sdWPjNchdqozeQn-208" edge="1">
          <mxGeometry relative="1" as="geometry" />
        </mxCell>
        <mxCell id="NBqt7sdWPjNchdqozeQn-194" value="2" style="edgeLabel;html=1;align=center;verticalAlign=middle;resizable=0;points=[];fontSize=16;rounded=1;sketch=1;" parent="NBqt7sdWPjNchdqozeQn-193" vertex="1" connectable="0">
          <mxGeometry x="-0.7308" relative="1" as="geometry">
            <mxPoint x="20.380000000000003" y="-13" as="offset" />
          </mxGeometry>
        </mxCell>
        <mxCell id="NBqt7sdWPjNchdqozeQn-195" style="edgeStyle=orthogonalEdgeStyle;orthogonalLoop=1;jettySize=auto;html=1;fontSize=16;exitX=0.5;exitY=1;exitDx=0;exitDy=0;exitPerimeter=0;entryX=1;entryY=0.5;entryDx=0;entryDy=0;sketch=1;curved=1;" parent="1" source="NBqt7sdWPjNchdqozeQn-197" target="NBqt7sdWPjNchdqozeQn-37" edge="1">
          <mxGeometry relative="1" as="geometry">
            <mxPoint x="-40" y="3560" as="targetPoint" />
            <Array as="points">
              <mxPoint x="223" y="2800" />
              <mxPoint x="246" y="2800" />
              <mxPoint x="246" y="3440" />
              <mxPoint x="60" y="3440" />
              <mxPoint x="60" y="3460" />
              <mxPoint x="-120" y="3460" />
            </Array>
          </mxGeometry>
        </mxCell>
        <mxCell id="NBqt7sdWPjNchdqozeQn-196" value="3" style="edgeLabel;html=1;align=center;verticalAlign=middle;resizable=0;points=[];fontSize=16;rounded=1;sketch=1;" parent="NBqt7sdWPjNchdqozeQn-195" vertex="1" connectable="0">
          <mxGeometry x="-0.9273" y="7" relative="1" as="geometry">
            <mxPoint x="-9" y="4" as="offset" />
          </mxGeometry>
        </mxCell>
        <mxCell id="NBqt7sdWPjNchdqozeQn-197" value="" style="strokeWidth=2;html=1;shape=mxgraph.flowchart.decision;whiteSpace=wrap;fontSize=16;rounded=1;sketch=1;" parent="1" vertex="1">
          <mxGeometry x="173.1500000000001" y="2660" width="100" height="100" as="geometry" />
        </mxCell>
        <mxCell id="NBqt7sdWPjNchdqozeQn-198" style="edgeStyle=orthogonalEdgeStyle;orthogonalLoop=1;jettySize=auto;html=1;fontSize=16;sketch=1;curved=1;" parent="1" source="NBqt7sdWPjNchdqozeQn-199" target="NBqt7sdWPjNchdqozeQn-204" edge="1">
          <mxGeometry relative="1" as="geometry" />
        </mxCell>
        <mxCell id="NBqt7sdWPjNchdqozeQn-199" value="&lt;font style=&quot;font-size: 12px&quot;&gt;Elija la opciÃ³n del ingrediente a agregar:&lt;br&gt;&lt;ol&gt;&lt;li style=&quot;text-align: left&quot;&gt;&lt;font style=&quot;font-size: 12px&quot;&gt;Pan.&lt;/font&gt;&lt;/li&gt;&lt;li style=&quot;text-align: left&quot;&gt;Carne.&lt;/li&gt;&lt;li style=&quot;text-align: left&quot;&gt;Queso.&lt;/li&gt;&lt;li style=&quot;text-align: left&quot;&gt;Bacon.&lt;/li&gt;&lt;li style=&quot;text-align: left&quot;&gt;Tomate.&lt;/li&gt;&lt;li style=&quot;text-align: left&quot;&gt;Lechuga.&lt;/li&gt;&lt;li style=&quot;text-align: left&quot;&gt;Aderezos.&lt;/li&gt;&lt;li style=&quot;text-align: left&quot;&gt;Pepino.&lt;/li&gt;&lt;li style=&quot;text-align: left&quot;&gt;Cebolla.&lt;/li&gt;&lt;li style=&quot;text-align: left&quot;&gt;Volver al menÃº anterior.&lt;/li&gt;&lt;/ol&gt;&lt;br&gt;&lt;/font&gt;" style="whiteSpace=wrap;html=1;absoluteArcSize=1;arcSize=14;strokeWidth=2;fontSize=16;rounded=1;sketch=1;" parent="1" vertex="1">
          <mxGeometry x="-54.84999999999991" y="2660" width="140" height="240" as="geometry" />
        </mxCell>
        <mxCell id="NBqt7sdWPjNchdqozeQn-200" style="edgeStyle=orthogonalEdgeStyle;orthogonalLoop=1;jettySize=auto;html=1;entryX=0;entryY=0.5;entryDx=0;entryDy=0;fontSize=16;exitX=0;exitY=0.5;exitDx=0;exitDy=0;exitPerimeter=0;sketch=1;curved=1;" parent="1" source="NBqt7sdWPjNchdqozeQn-204" target="NBqt7sdWPjNchdqozeQn-190" edge="1">
          <mxGeometry relative="1" as="geometry">
            <Array as="points">
              <mxPoint x="-34.84999999999991" y="3000" />
              <mxPoint x="-104.84999999999991" y="3000" />
              <mxPoint x="-104.84999999999991" y="2570" />
            </Array>
          </mxGeometry>
        </mxCell>
        <mxCell id="NBqt7sdWPjNchdqozeQn-201" value="10" style="edgeLabel;html=1;align=center;verticalAlign=middle;resizable=0;points=[];fontSize=16;rounded=1;sketch=1;" parent="NBqt7sdWPjNchdqozeQn-200" vertex="1" connectable="0">
          <mxGeometry x="-0.6853" y="-8" relative="1" as="geometry">
            <mxPoint x="22" y="-7" as="offset" />
          </mxGeometry>
        </mxCell>
        <mxCell id="NBqt7sdWPjNchdqozeQn-202" style="edgeStyle=orthogonalEdgeStyle;orthogonalLoop=1;jettySize=auto;html=1;fontSize=16;sketch=1;curved=1;" parent="1" source="NBqt7sdWPjNchdqozeQn-204" target="NBqt7sdWPjNchdqozeQn-206" edge="1">
          <mxGeometry relative="1" as="geometry" />
        </mxCell>
        <mxCell id="NBqt7sdWPjNchdqozeQn-203" value="1 al 9" style="edgeLabel;html=1;align=center;verticalAlign=middle;resizable=0;points=[];fontSize=16;rounded=1;sketch=1;" parent="NBqt7sdWPjNchdqozeQn-202" vertex="1" connectable="0">
          <mxGeometry x="-0.2711" y="2" relative="1" as="geometry">
            <mxPoint x="18" as="offset" />
          </mxGeometry>
        </mxCell>
        <mxCell id="NBqt7sdWPjNchdqozeQn-204" value="" style="strokeWidth=2;html=1;shape=mxgraph.flowchart.decision;whiteSpace=wrap;fontSize=16;rounded=1;sketch=1;" parent="1" vertex="1">
          <mxGeometry x="-34.84999999999991" y="2940" width="100" height="100" as="geometry" />
        </mxCell>
        <mxCell id="NBqt7sdWPjNchdqozeQn-205" style="edgeStyle=orthogonalEdgeStyle;orthogonalLoop=1;jettySize=auto;html=1;entryX=1.029;entryY=0.654;entryDx=0;entryDy=0;entryPerimeter=0;fontSize=16;sketch=1;curved=1;" parent="1" source="NBqt7sdWPjNchdqozeQn-206" target="NBqt7sdWPjNchdqozeQn-199" edge="1">
          <mxGeometry relative="1" as="geometry">
            <Array as="points">
              <mxPoint x="165.1500000000001" y="3150" />
              <mxPoint x="165.1500000000001" y="2817" />
            </Array>
          </mxGeometry>
        </mxCell>
        <mxCell id="NBqt7sdWPjNchdqozeQn-206" value="&lt;font style=&quot;font-size: 12px&quot;&gt;El cliente ingresa su opciÃ³n, se muestra un mensaje &quot;el ingrediente X ha sido agregado&quot; y vuelve al menÃº anterior.&lt;/font&gt;" style="whiteSpace=wrap;html=1;absoluteArcSize=1;arcSize=14;strokeWidth=2;fontSize=16;rounded=1;sketch=1;" parent="1" vertex="1">
          <mxGeometry x="-54.84999999999991" y="3150" width="135" height="100" as="geometry" />
        </mxCell>
        <mxCell id="NBqt7sdWPjNchdqozeQn-207" style="edgeStyle=orthogonalEdgeStyle;orthogonalLoop=1;jettySize=auto;html=1;fontSize=16;sketch=1;curved=1;" parent="1" source="NBqt7sdWPjNchdqozeQn-208" target="NBqt7sdWPjNchdqozeQn-213" edge="1">
          <mxGeometry relative="1" as="geometry" />
        </mxCell>
        <mxCell id="NBqt7sdWPjNchdqozeQn-208" value="&lt;font style=&quot;font-size: 12px&quot;&gt;Elija la opciÃ³n del ingrediente a quitar:&lt;br&gt;&lt;ol&gt;&lt;li style=&quot;text-align: left&quot;&gt;&lt;font style=&quot;font-size: 12px&quot;&gt;Pan.&lt;/font&gt;&lt;/li&gt;&lt;li style=&quot;text-align: left&quot;&gt;Carne.&lt;/li&gt;&lt;li style=&quot;text-align: left&quot;&gt;Queso.&lt;/li&gt;&lt;li style=&quot;text-align: left&quot;&gt;Bacon.&lt;/li&gt;&lt;li style=&quot;text-align: left&quot;&gt;Tomate.&lt;/li&gt;&lt;li style=&quot;text-align: left&quot;&gt;Lechuga.&lt;/li&gt;&lt;li style=&quot;text-align: left&quot;&gt;Aderezos.&lt;/li&gt;&lt;li style=&quot;text-align: left&quot;&gt;Pepino.&lt;/li&gt;&lt;li style=&quot;text-align: left&quot;&gt;Cebolla.&lt;/li&gt;&lt;li style=&quot;text-align: left&quot;&gt;Volver al menÃº anterior.&lt;/li&gt;&lt;/ol&gt;&lt;br&gt;&lt;/font&gt;" style="whiteSpace=wrap;html=1;absoluteArcSize=1;arcSize=14;strokeWidth=2;fontSize=16;rounded=1;sketch=1;" parent="1" vertex="1">
          <mxGeometry x="365.1500000000001" y="2660" width="140" height="240" as="geometry" />
        </mxCell>
        <mxCell id="NBqt7sdWPjNchdqozeQn-209" style="edgeStyle=orthogonalEdgeStyle;orthogonalLoop=1;jettySize=auto;html=1;fontSize=16;sketch=1;curved=1;" parent="1" source="NBqt7sdWPjNchdqozeQn-213" target="NBqt7sdWPjNchdqozeQn-215" edge="1">
          <mxGeometry relative="1" as="geometry" />
        </mxCell>
        <mxCell id="NBqt7sdWPjNchdqozeQn-210" value="1 al 9" style="edgeLabel;html=1;align=center;verticalAlign=middle;resizable=0;points=[];fontSize=16;rounded=1;sketch=1;" parent="NBqt7sdWPjNchdqozeQn-209" vertex="1" connectable="0">
          <mxGeometry x="-0.2711" y="2" relative="1" as="geometry">
            <mxPoint x="18" as="offset" />
          </mxGeometry>
        </mxCell>
        <mxCell id="NBqt7sdWPjNchdqozeQn-211" style="edgeStyle=orthogonalEdgeStyle;orthogonalLoop=1;jettySize=auto;html=1;entryX=1;entryY=0.75;entryDx=0;entryDy=0;fontSize=16;sketch=1;curved=1;" parent="1" source="NBqt7sdWPjNchdqozeQn-213" target="NBqt7sdWPjNchdqozeQn-190" edge="1">
          <mxGeometry relative="1" as="geometry">
            <Array as="points">
              <mxPoint x="635.15" y="2990" />
              <mxPoint x="635.15" y="2595" />
            </Array>
          </mxGeometry>
        </mxCell>
        <mxCell id="NBqt7sdWPjNchdqozeQn-212" value="10" style="edgeLabel;html=1;align=center;verticalAlign=middle;resizable=0;points=[];fontSize=16;rounded=1;sketch=1;" parent="NBqt7sdWPjNchdqozeQn-211" vertex="1" connectable="0">
          <mxGeometry x="-0.8614" y="4" relative="1" as="geometry">
            <mxPoint x="-8" y="-26" as="offset" />
          </mxGeometry>
        </mxCell>
        <mxCell id="NBqt7sdWPjNchdqozeQn-213" value="" style="strokeWidth=2;html=1;shape=mxgraph.flowchart.decision;whiteSpace=wrap;fontSize=16;rounded=1;sketch=1;" parent="1" vertex="1">
          <mxGeometry x="385.1500000000001" y="2940" width="100" height="100" as="geometry" />
        </mxCell>
        <mxCell id="NBqt7sdWPjNchdqozeQn-214" style="edgeStyle=orthogonalEdgeStyle;orthogonalLoop=1;jettySize=auto;html=1;entryX=0;entryY=0.75;entryDx=0;entryDy=0;fontSize=16;sketch=1;curved=1;" parent="1" source="NBqt7sdWPjNchdqozeQn-215" target="NBqt7sdWPjNchdqozeQn-208" edge="1">
          <mxGeometry relative="1" as="geometry">
            <Array as="points">
              <mxPoint x="295.1500000000001" y="3180" />
              <mxPoint x="295.1500000000001" y="2840" />
            </Array>
          </mxGeometry>
        </mxCell>
        <mxCell id="NBqt7sdWPjNchdqozeQn-215" value="&lt;font style=&quot;font-size: 12px&quot;&gt;El cliente ingresa su opciÃ³n, se muestra un mensaje &quot;el ingrediente X ha sido quitado&quot; y vuelve al menÃº anterior.&lt;/font&gt;" style="whiteSpace=wrap;html=1;absoluteArcSize=1;arcSize=14;strokeWidth=2;fontSize=16;rounded=1;sketch=1;" parent="1" vertex="1">
          <mxGeometry x="365.1500000000001" y="3150" width="135" height="100" as="geometry" />
        </mxCell>
        <mxCell id="NBqt7sdWPjNchdqozeQn-216" value="Your order will be answered shortly by a representative, please wait.&amp;nbsp;" style="whiteSpace=wrap;html=1;absoluteArcSize=1;arcSize=14;strokeWidth=2;fontSize=16;rounded=1;sketch=1;" parent="1" vertex="1">
          <mxGeometry x="-26.640000000000025" y="-530" width="140" height="146" as="geometry" />
        </mxCell>
        <mxCell id="NBqt7sdWPjNchdqozeQn-217" style="edgeStyle=orthogonalEdgeStyle;rounded=0;sketch=1;orthogonalLoop=1;jettySize=auto;html=1;entryX=0.5;entryY=0;entryDx=0;entryDy=0;fontSize=16;curved=1;" parent="1" source="NBqt7sdWPjNchdqozeQn-221" target="NBqt7sdWPjNchdqozeQn-222" edge="1">
          <mxGeometry relative="1" as="geometry" />
        </mxCell>
        <mxCell id="NBqt7sdWPjNchdqozeQn-218" value="1" style="edgeLabel;html=1;align=center;verticalAlign=middle;resizable=0;points=[];fontSize=16;" parent="NBqt7sdWPjNchdqozeQn-217" vertex="1" connectable="0">
          <mxGeometry x="-0.3035" y="-2" relative="1" as="geometry">
            <mxPoint x="-15.79" y="10.759999999999998" as="offset" />
          </mxGeometry>
        </mxCell>
        <mxCell id="NBqt7sdWPjNchdqozeQn-219" style="edgeStyle=orthogonalEdgeStyle;rounded=0;sketch=1;orthogonalLoop=1;jettySize=auto;html=1;fontSize=16;curved=1;" parent="1" source="NBqt7sdWPjNchdqozeQn-221" target="NBqt7sdWPjNchdqozeQn-223" edge="1">
          <mxGeometry relative="1" as="geometry" />
        </mxCell>
        <mxCell id="NBqt7sdWPjNchdqozeQn-220" value="2" style="edgeLabel;html=1;align=center;verticalAlign=middle;resizable=0;points=[];fontSize=16;" parent="NBqt7sdWPjNchdqozeQn-219" vertex="1" connectable="0">
          <mxGeometry x="-0.2758" y="2" relative="1" as="geometry">
            <mxPoint x="22.230000000000004" y="-19" as="offset" />
          </mxGeometry>
        </mxCell>
        <mxCell id="NBqt7sdWPjNchdqozeQn-221" value="" style="strokeWidth=2;html=1;shape=mxgraph.flowchart.decision;whiteSpace=wrap;fontSize=12;align=left;rounded=1;sketch=1;" parent="1" vertex="1">
          <mxGeometry x="-182.95999999999998" y="5160.999999999999" width="100" height="100" as="geometry" />
        </mxCell>
        <mxCell id="NBqt7sdWPjNchdqozeQn-222" value="En breve serÃ¡ atendido por un representante por favor aguarde." style="whiteSpace=wrap;html=1;absoluteArcSize=1;arcSize=14;strokeWidth=2;labelBackgroundColor=none;fillColor=none;fontSize=12;align=center;rounded=1;sketch=1;" parent="1" vertex="1">
          <mxGeometry x="-219.99999999999997" y="5340" width="160" height="120" as="geometry" />
        </mxCell>
        <mxCell id="NBqt7sdWPjNchdqozeQn-223" value="La conversaciÃ³n ha finalizado. EscrÃ­benos pronto." style="whiteSpace=wrap;html=1;absoluteArcSize=1;arcSize=14;strokeWidth=2;labelBackgroundColor=none;fillColor=none;fontSize=12;align=center;rounded=1;sketch=1;" parent="1" vertex="1">
          <mxGeometry x="-11.229999999999968" y="5151" width="160" height="120" as="geometry" />
        </mxCell>
        <mxCell id="NBqt7sdWPjNchdqozeQn-224" value="Text" style="text;html=1;align=center;verticalAlign=middle;resizable=0;points=[];autosize=1;strokeColor=none;" parent="1" vertex="1">
          <mxGeometry x="-60" y="4880" width="40" height="20" as="geometry" />
        </mxCell>
        <mxCell id="NBqt7sdWPjNchdqozeQn-225" style="edgeStyle=orthogonalEdgeStyle;curved=1;rounded=0;sketch=1;orthogonalLoop=1;jettySize=auto;html=1;entryX=0.5;entryY=0;entryDx=0;entryDy=0;entryPerimeter=0;shadow=0;fontSize=12;" parent="1" source="NBqt7sdWPjNchdqozeQn-226" target="NBqt7sdWPjNchdqozeQn-243" edge="1">
          <mxGeometry relative="1" as="geometry" />
        </mxCell>
        <mxCell id="NBqt7sdWPjNchdqozeQn-226" value="Dear customer, we identify several profiles associated with your line, confirm which one corresponds to you or we proceed to give you a new registration:&lt;br&gt;&lt;ol&gt;&lt;li style=&quot;text-align: left&quot;&gt;Register.&lt;/li&gt;&lt;li style=&quot;text-align: left&quot;&gt;I&#39;m Juan PÃ©rez ...orreo1@mail.com.&lt;/li&gt;&lt;li style=&quot;text-align: left&quot;&gt;I&#39;m SofÃ­a Gonzalez ...orreo2@mail.com.&lt;/li&gt;&lt;li style=&quot;text-align: left&quot;&gt;I&#39;m Pedro GÃ³mez...orreo3@mail.com.&lt;/li&gt;&lt;/ol&gt;" style="whiteSpace=wrap;html=1;absoluteArcSize=1;arcSize=14;strokeWidth=2;sketch=1;rounded=1;" parent="1" vertex="1">
          <mxGeometry x="-1180" y="-1240" width="280" height="140" as="geometry" />
        </mxCell>
        <mxCell id="NBqt7sdWPjNchdqozeQn-227" style="edgeStyle=orthogonalEdgeStyle;rounded=0;sketch=1;orthogonalLoop=1;jettySize=auto;html=1;shadow=0;curved=1;" parent="1" source="NBqt7sdWPjNchdqozeQn-231" target="NBqt7sdWPjNchdqozeQn-98" edge="1">
          <mxGeometry relative="1" as="geometry" />
        </mxCell>
        <mxCell id="NBqt7sdWPjNchdqozeQn-228" value="SI" style="edgeLabel;html=1;align=center;verticalAlign=middle;resizable=0;points=[];fontSize=16;" parent="NBqt7sdWPjNchdqozeQn-227" vertex="1" connectable="0">
          <mxGeometry x="-0.2655" y="2" relative="1" as="geometry">
            <mxPoint x="18" y="-242" as="offset" />
          </mxGeometry>
        </mxCell>
        <mxCell id="NBqt7sdWPjNchdqozeQn-229" style="edgeStyle=orthogonalEdgeStyle;rounded=0;sketch=1;orthogonalLoop=1;jettySize=auto;html=1;entryX=0.5;entryY=0;entryDx=0;entryDy=0;entryPerimeter=0;shadow=0;fontSize=16;curved=1;" parent="1" source="NBqt7sdWPjNchdqozeQn-231" target="NBqt7sdWPjNchdqozeQn-236" edge="1">
          <mxGeometry relative="1" as="geometry" />
        </mxCell>
        <mxCell id="NBqt7sdWPjNchdqozeQn-230" value="NO" style="edgeLabel;html=1;align=center;verticalAlign=middle;resizable=0;points=[];fontSize=16;" parent="NBqt7sdWPjNchdqozeQn-229" vertex="1" connectable="0">
          <mxGeometry x="-0.4905" relative="1" as="geometry">
            <mxPoint x="-117" y="-10" as="offset" />
          </mxGeometry>
        </mxCell>
        <mxCell id="NBqt7sdWPjNchdqozeQn-231" value="You are a confirmed customer&amp;nbsp;" style="strokeWidth=2;html=1;shape=mxgraph.flowchart.decision;whiteSpace=wrap;rounded=1;shadow=0;sketch=1;" parent="1" vertex="1">
          <mxGeometry x="-365.04999999999995" y="-1560" width="100" height="100" as="geometry" />
        </mxCell>
        <mxCell id="NBqt7sdWPjNchdqozeQn-232" style="edgeStyle=orthogonalEdgeStyle;curved=1;rounded=0;sketch=1;orthogonalLoop=1;jettySize=auto;html=1;shadow=0;fontSize=16;" parent="1" source="NBqt7sdWPjNchdqozeQn-236" target="NBqt7sdWPjNchdqozeQn-226" edge="1">
          <mxGeometry relative="1" as="geometry">
            <mxPoint x="-999.3900000000009" y="-1280" as="targetPoint" />
          </mxGeometry>
        </mxCell>
        <mxCell id="NBqt7sdWPjNchdqozeQn-233" value="SI" style="edgeLabel;html=1;align=center;verticalAlign=middle;resizable=0;points=[];fontSize=16;" parent="NBqt7sdWPjNchdqozeQn-232" vertex="1" connectable="0">
          <mxGeometry x="0.1135" y="20" relative="1" as="geometry">
            <mxPoint x="-57" y="70" as="offset" />
          </mxGeometry>
        </mxCell>
        <mxCell id="NBqt7sdWPjNchdqozeQn-234" style="edgeStyle=orthogonalEdgeStyle;curved=1;rounded=0;sketch=1;orthogonalLoop=1;jettySize=auto;html=1;shadow=0;fontSize=16;" parent="1" source="NBqt7sdWPjNchdqozeQn-236" target="NBqt7sdWPjNchdqozeQn-238" edge="1">
          <mxGeometry relative="1" as="geometry" />
        </mxCell>
        <mxCell id="NBqt7sdWPjNchdqozeQn-235" value="NO" style="edgeLabel;html=1;align=center;verticalAlign=middle;resizable=0;points=[];fontSize=16;" parent="NBqt7sdWPjNchdqozeQn-234" vertex="1" connectable="0">
          <mxGeometry x="0.441" y="11" relative="1" as="geometry">
            <mxPoint x="-20" y="-6" as="offset" />
          </mxGeometry>
        </mxCell>
        <mxCell id="NBqt7sdWPjNchdqozeQn-236" value="Has multiple suggestion&amp;nbsp;" style="strokeWidth=2;html=1;shape=mxgraph.flowchart.decision;whiteSpace=wrap;rounded=1;shadow=0;sketch=1;fontSize=12;" parent="1" vertex="1">
          <mxGeometry x="-649.39" y="-1480" width="100" height="100" as="geometry" />
        </mxCell>
        <mxCell id="NBqt7sdWPjNchdqozeQn-237" style="edgeStyle=orthogonalEdgeStyle;curved=1;rounded=0;sketch=1;orthogonalLoop=1;jettySize=auto;html=1;entryX=0.5;entryY=0;entryDx=0;entryDy=0;entryPerimeter=0;shadow=0;fontSize=12;" parent="1" source="NBqt7sdWPjNchdqozeQn-238" target="NBqt7sdWPjNchdqozeQn-243" edge="1">
          <mxGeometry relative="1" as="geometry" />
        </mxCell>
        <mxCell id="NBqt7sdWPjNchdqozeQn-238" value="Dear customer, we identify a profile associated with your line, confirm the associated name or proceed to give you a new registration:&lt;br&gt;&lt;ol&gt;&lt;li style=&quot;text-align: left&quot;&gt;Register&lt;/li&gt;&lt;li style=&quot;text-align: left&quot;&gt;I confirm that I am Juan PÃ©rez ... orreo1@mail.com.&amp;nbsp;.&lt;/li&gt;&lt;/ol&gt;" style="whiteSpace=wrap;html=1;absoluteArcSize=1;arcSize=14;strokeWidth=2;sketch=1;rounded=1;" parent="1" vertex="1">
          <mxGeometry x="-786.92" y="-1320" width="317.5" height="120" as="geometry" />
        </mxCell>
        <mxCell id="NBqt7sdWPjNchdqozeQn-239" style="edgeStyle=orthogonalEdgeStyle;curved=1;rounded=0;sketch=1;orthogonalLoop=1;jettySize=auto;html=1;shadow=0;fontSize=12;entryX=0;entryY=0.25;entryDx=0;entryDy=0;" parent="1" source="NBqt7sdWPjNchdqozeQn-243" target="NBqt7sdWPjNchdqozeQn-245" edge="1">
          <mxGeometry relative="1" as="geometry">
            <mxPoint x="-350" y="-1100" as="targetPoint" />
          </mxGeometry>
        </mxCell>
        <mxCell id="NBqt7sdWPjNchdqozeQn-240" value="NO" style="edgeLabel;html=1;align=center;verticalAlign=middle;resizable=0;points=[];fontSize=16;" parent="NBqt7sdWPjNchdqozeQn-239" vertex="1" connectable="0">
          <mxGeometry x="-0.8105" y="5" relative="1" as="geometry">
            <mxPoint x="-34" y="-15" as="offset" />
          </mxGeometry>
        </mxCell>
        <mxCell id="NBqt7sdWPjNchdqozeQn-241" style="edgeStyle=orthogonalEdgeStyle;curved=1;rounded=0;sketch=1;orthogonalLoop=1;jettySize=auto;html=1;entryX=0;entryY=0.75;entryDx=0;entryDy=0;shadow=0;fontSize=12;exitX=0.5;exitY=1;exitDx=0;exitDy=0;exitPerimeter=0;" parent="1" source="NBqt7sdWPjNchdqozeQn-243" target="NBqt7sdWPjNchdqozeQn-98" edge="1">
          <mxGeometry relative="1" as="geometry" />
        </mxCell>
        <mxCell id="NBqt7sdWPjNchdqozeQn-242" value="SI" style="edgeLabel;html=1;align=center;verticalAlign=middle;resizable=0;points=[];fontSize=16;" parent="NBqt7sdWPjNchdqozeQn-241" vertex="1" connectable="0">
          <mxGeometry x="0.026" y="33" relative="1" as="geometry">
            <mxPoint x="-28" y="-52" as="offset" />
          </mxGeometry>
        </mxCell>
        <mxCell id="NBqt7sdWPjNchdqozeQn-243" value="Confirm one of the options&amp;nbsp;" style="strokeWidth=2;html=1;shape=mxgraph.flowchart.decision;whiteSpace=wrap;rounded=1;shadow=0;sketch=1;fontSize=12;spacingLeft=3;spacingRight=3;" parent="1" vertex="1">
          <mxGeometry x="-810" y="-1120" width="110" height="120" as="geometry" />
        </mxCell>
        <mxCell id="NBqt7sdWPjNchdqozeQn-244" style="edgeStyle=orthogonalEdgeStyle;curved=1;rounded=0;sketch=1;orthogonalLoop=1;jettySize=auto;html=1;entryX=0;entryY=0.25;entryDx=0;entryDy=0;shadow=0;fontSize=16;" parent="1" source="NBqt7sdWPjNchdqozeQn-245" target="NBqt7sdWPjNchdqozeQn-102" edge="1">
          <mxGeometry relative="1" as="geometry" />
        </mxCell>
        <mxCell id="NBqt7sdWPjNchdqozeQn-245" value="Please, give me your first and last name in a single line:&amp;nbsp;" style="whiteSpace=wrap;html=1;absoluteArcSize=1;arcSize=14;strokeWidth=2;rounded=1;sketch=1;" parent="1" vertex="1">
          <mxGeometry x="-306.76" y="-1160" width="190" height="40" as="geometry" />
        </mxCell>
        <mxCell id="NBqt7sdWPjNchdqozeQn-246" style="edgeStyle=orthogonalEdgeStyle;curved=1;rounded=0;sketch=1;orthogonalLoop=1;jettySize=auto;html=1;entryX=0.5;entryY=0;entryDx=0;entryDy=0;entryPerimeter=0;shadow=0;fontSize=16;" parent="1" source="NBqt7sdWPjNchdqozeQn-247" target="NBqt7sdWPjNchdqozeQn-52" edge="1">
          <mxGeometry relative="1" as="geometry">
            <Array as="points">
              <mxPoint x="-633" y="4920" />
              <mxPoint x="-295" y="4920" />
            </Array>
          </mxGeometry>
        </mxCell>
        <mxCell id="NBqt7sdWPjNchdqozeQn-247" value="&lt;p class=&quot;MsoNormal&quot; style=&quot;font-size: 12px&quot;&gt;Los datos de facturaciÃ³n no serÃ¡n asociados a su perfil.&lt;/p&gt;&lt;p class=&quot;MsoNormal&quot; style=&quot;font-size: 12px&quot;&gt;&lt;span&gt;Se generarÃ¡ una factura a nombre de Juan PÃ©rez con ci/ruc&lt;/span&gt;&lt;/p&gt;&lt;p class=&quot;MsoNormal&quot; style=&quot;font-size: 12px&quot;&gt;123456-6 por un valor de $$$$, pago con efectivo/tarjeta.&lt;/p&gt;&lt;p class=&quot;MsoNormal&quot; style=&quot;font-size: 12px&quot;&gt;Confirmar el pedido. EnvÃ­e el nÃºmero de su opciÃ³n:&lt;br&gt;&lt;/p&gt;&lt;ol&gt;&lt;li&gt;Confirmar Pedido (emoticon).&lt;/li&gt;&lt;li&gt;Cancelar Pedido (emoticon).&lt;/li&gt;&lt;/ol&gt;" style="whiteSpace=wrap;html=1;fontSize=12;align=left;spacingLeft=4;rounded=1;sketch=1;spacingRight=4;" parent="1" vertex="1">
          <mxGeometry x="-760" y="4639" width="253.25" height="190" as="geometry" />
        </mxCell>
        <mxCell id="NBqt7sdWPjNchdqozeQn-248" style="edgeStyle=orthogonalEdgeStyle;curved=1;rounded=0;sketch=1;orthogonalLoop=1;jettySize=auto;html=1;shadow=0;fontSize=16;" parent="1" source="NBqt7sdWPjNchdqozeQn-249" target="NBqt7sdWPjNchdqozeQn-52" edge="1">
          <mxGeometry relative="1" as="geometry">
            <Array as="points">
              <mxPoint x="-913" y="4950" />
              <mxPoint x="-295" y="4950" />
            </Array>
          </mxGeometry>
        </mxCell>
        <mxCell id="NBqt7sdWPjNchdqozeQn-249" value="&lt;p class=&quot;MsoNormal&quot; style=&quot;font-size: 12px&quot;&gt;Se han asociado exitosamente los datos de&amp;nbsp; facturaciÃ³n a su perfil.&lt;/p&gt;&lt;p class=&quot;MsoNormal&quot; style=&quot;font-size: 12px&quot;&gt;&lt;span&gt;Se generarÃ¡ una factura a nombre de Juan PÃ©rez con ci/ruc&lt;/span&gt;&lt;/p&gt;&lt;p class=&quot;MsoNormal&quot; style=&quot;font-size: 12px&quot;&gt;123456-6 por un valor de $$$$, pago con efectivo/tarjeta.&lt;/p&gt;&lt;p class=&quot;MsoNormal&quot; style=&quot;font-size: 12px&quot;&gt;Confirmar el pedido. EnvÃ­e el nÃºmero de su opciÃ³n:&lt;br&gt;&lt;/p&gt;&lt;ol&gt;&lt;li&gt;Confirmar Pedido (emoticon).&lt;/li&gt;&lt;li&gt;Cancelar Pedido (emoticon).&lt;/li&gt;&lt;/ol&gt;" style="whiteSpace=wrap;html=1;fontSize=12;align=left;spacingLeft=5;rounded=1;sketch=1;spacingRight=4;" parent="1" vertex="1">
          <mxGeometry x="-1040.08" y="4639" width="253.16" height="190" as="geometry" />
        </mxCell>
        <mxCell id="NBqt7sdWPjNchdqozeQn-250" style="edgeStyle=orthogonalEdgeStyle;orthogonalLoop=1;jettySize=auto;html=1;entryX=0.5;entryY=0;entryDx=0;entryDy=0;fontSize=12;sketch=1;curved=1;" parent="1" source="NBqt7sdWPjNchdqozeQn-251" target="NBqt7sdWPjNchdqozeQn-253" edge="1">
          <mxGeometry relative="1" as="geometry" />
        </mxCell>
        <mxCell id="NBqt7sdWPjNchdqozeQn-251" value="EnvÃ­e el nombre:" style="whiteSpace=wrap;html=1;absoluteArcSize=1;arcSize=14;strokeWidth=2;rounded=1;sketch=1;" parent="1" vertex="1">
          <mxGeometry x="-675.2999999999998" y="4461.999999999999" width="105" height="40" as="geometry" />
        </mxCell>
        <mxCell id="NBqt7sdWPjNchdqozeQn-252" style="edgeStyle=orthogonalEdgeStyle;curved=1;rounded=0;sketch=1;orthogonalLoop=1;jettySize=auto;html=1;entryX=0.5;entryY=0;entryDx=0;entryDy=0;shadow=0;fontSize=16;" parent="1" source="NBqt7sdWPjNchdqozeQn-253" target="NBqt7sdWPjNchdqozeQn-247" edge="1">
          <mxGeometry relative="1" as="geometry" />
        </mxCell>
        <mxCell id="NBqt7sdWPjNchdqozeQn-253" value="EnvÃ­e el ci/ruc:" style="whiteSpace=wrap;html=1;absoluteArcSize=1;arcSize=14;strokeWidth=2;fontSize=12;rounded=1;sketch=1;" parent="1" vertex="1">
          <mxGeometry x="-676.4499999999999" y="4547.86" width="105" height="40" as="geometry" />
        </mxCell>
        <mxCell id="NBqt7sdWPjNchdqozeQn-254" style="edgeStyle=orthogonalEdgeStyle;curved=1;rounded=0;sketch=1;orthogonalLoop=1;jettySize=auto;html=1;entryX=0;entryY=0.5;entryDx=0;entryDy=0;shadow=0;fontSize=12;entryPerimeter=0;" parent="1" source="NBqt7sdWPjNchdqozeQn-256" target="NBqt7sdWPjNchdqozeQn-261" edge="1">
          <mxGeometry relative="1" as="geometry">
            <mxPoint x="-82.28999999999996" y="1340" as="targetPoint" />
          </mxGeometry>
        </mxCell>
        <mxCell id="NBqt7sdWPjNchdqozeQn-255" value="SI" style="edgeLabel;html=1;align=center;verticalAlign=middle;resizable=0;points=[];fontSize=12;" parent="NBqt7sdWPjNchdqozeQn-254" vertex="1" connectable="0">
          <mxGeometry x="-0.2425" y="5" relative="1" as="geometry">
            <mxPoint x="19" y="-39" as="offset" />
          </mxGeometry>
        </mxCell>
        <mxCell id="NBqt7sdWPjNchdqozeQn-256" value="Add new address" style="strokeWidth=2;html=1;shape=mxgraph.flowchart.decision;whiteSpace=wrap;rounded=1;shadow=0;sketch=1;fontSize=12;align=center;" parent="1" vertex="1">
          <mxGeometry x="-269.18" y="1340" width="100" height="100" as="geometry" />
        </mxCell>
        <mxCell id="NBqt7sdWPjNchdqozeQn-257" style="edgeStyle=orthogonalEdgeStyle;curved=1;rounded=0;sketch=1;orthogonalLoop=1;jettySize=auto;html=1;entryX=0;entryY=0.5;entryDx=0;entryDy=0;shadow=0;fontSize=12;" parent="1" source="NBqt7sdWPjNchdqozeQn-261" target="NBqt7sdWPjNchdqozeQn-263" edge="1">
          <mxGeometry relative="1" as="geometry" />
        </mxCell>
        <mxCell id="NBqt7sdWPjNchdqozeQn-258" value="SI" style="edgeLabel;html=1;align=center;verticalAlign=middle;resizable=0;points=[];fontSize=12;" parent="NBqt7sdWPjNchdqozeQn-257" vertex="1" connectable="0">
          <mxGeometry x="0.3091" y="2" relative="1" as="geometry">
            <mxPoint x="8" y="-18" as="offset" />
          </mxGeometry>
        </mxCell>
        <mxCell id="NBqt7sdWPjNchdqozeQn-259" style="edgeStyle=orthogonalEdgeStyle;curved=1;rounded=0;sketch=1;orthogonalLoop=1;jettySize=auto;html=1;entryX=0.5;entryY=0;entryDx=0;entryDy=0;shadow=0;fontSize=12;" parent="1" source="NBqt7sdWPjNchdqozeQn-261" target="NBqt7sdWPjNchdqozeQn-265" edge="1">
          <mxGeometry relative="1" as="geometry" />
        </mxCell>
        <mxCell id="NBqt7sdWPjNchdqozeQn-260" value="NO" style="edgeLabel;html=1;align=center;verticalAlign=middle;resizable=0;points=[];fontSize=12;" parent="NBqt7sdWPjNchdqozeQn-259" vertex="1" connectable="0">
          <mxGeometry x="0.2353" y="1" relative="1" as="geometry">
            <mxPoint x="15" y="9" as="offset" />
          </mxGeometry>
        </mxCell>
        <mxCell id="NBqt7sdWPjNchdqozeQn-261" value="Do you want to use this address for future orders?&amp;nbsp;" style="strokeWidth=2;html=1;shape=mxgraph.flowchart.decision;whiteSpace=wrap;rounded=1;shadow=0;sketch=1;fontSize=12;align=center;" parent="1" vertex="1">
          <mxGeometry x="-90" y="1300" width="140" height="120" as="geometry" />
        </mxCell>
        <mxCell id="NBqt7sdWPjNchdqozeQn-262" style="edgeStyle=orthogonalEdgeStyle;curved=1;rounded=0;sketch=1;orthogonalLoop=1;jettySize=auto;html=1;shadow=0;fontSize=12;" parent="1" source="NBqt7sdWPjNchdqozeQn-263" target="NBqt7sdWPjNchdqozeQn-18" edge="1">
          <mxGeometry relative="1" as="geometry">
            <Array as="points">
              <mxPoint x="210" y="1590" />
              <mxPoint x="-294" y="1590" />
            </Array>
          </mxGeometry>
        </mxCell>
        <mxCell id="NBqt7sdWPjNchdqozeQn-263" value="Address registered successfully&amp;nbsp;" style="rounded=1;whiteSpace=wrap;html=1;absoluteArcSize=1;arcSize=14;strokeWidth=2;shadow=0;sketch=1;fontSize=12;align=center;" parent="1" vertex="1">
          <mxGeometry x="160" y="1335" width="100" height="50" as="geometry" />
        </mxCell>
        <mxCell id="NBqt7sdWPjNchdqozeQn-264" style="edgeStyle=orthogonalEdgeStyle;curved=1;rounded=0;sketch=1;orthogonalLoop=1;jettySize=auto;html=1;shadow=0;fontSize=12;" parent="1" source="NBqt7sdWPjNchdqozeQn-265" target="NBqt7sdWPjNchdqozeQn-18" edge="1">
          <mxGeometry relative="1" as="geometry">
            <Array as="points">
              <mxPoint x="-10" y="1550" />
              <mxPoint x="-294" y="1550" />
            </Array>
          </mxGeometry>
        </mxCell>
        <mxCell id="NBqt7sdWPjNchdqozeQn-265" value="This address will not be taken into account for future orders.&amp;nbsp;" style="rounded=1;whiteSpace=wrap;html=1;absoluteArcSize=1;arcSize=14;strokeWidth=2;shadow=0;sketch=1;fontSize=12;align=center;" parent="1" vertex="1">
          <mxGeometry x="-60.00000000000001" y="1460" width="100" height="70" as="geometry" />
        </mxCell>
      </root>
    </mxGraphModel>
  </diagram>
</mxfile>
